Rubik-Medium.ufo
<glyph name="exclam" format="1">
  <advance width="270"/>
  <unicode hex="0021"/>
  <outline>
    <contour>
      <point x="92" y="142" type="line" name="hr00" smooth="yes"/>
      <point x="77" y="142"/>
      <point x="65" y="130"/>
      <point x="65" y="115" type="curve" smooth="yes"/>
      <point x="65" y="27" type="line" smooth="yes"/>
      <point x="65" y="12"/>
      <point x="77" y="0"/>
      <point x="92" y="0" type="curve" smooth="yes"/>
      <point x="178" y="0" type="line" smooth="yes"/>
      <point x="193" y="0"/>
      <point x="205" y="12"/>
      <point x="205" y="27" type="curve" smooth="yes"/>
      <point x="205" y="115" type="line" smooth="yes"/>
      <point x="205" y="130"/>
      <point x="193" y="142"/>
      <point x="178" y="142" type="curve" smooth="yes"/>
    </contour>
    <contour>
      <point x="200" y="673" type="line" smooth="yes"/>
      <point x="200" y="688"/>
      <point x="188" y="700"/>
      <point x="173" y="700" type="curve" smooth="yes"/>
      <point x="97" y="700" type="line" smooth="yes"/>
      <point x="82" y="700"/>
      <point x="70" y="688"/>
      <point x="70" y="673" type="curve" smooth="yes"/>
      <point x="70" y="229" type="line" smooth="yes"/>
      <point x="70" y="214"/>
      <point x="82" y="202"/>
      <point x="97" y="202" type="curve" smooth="yes"/>
      <point x="173" y="202" type="line" smooth="yes"/>
      <point x="188" y="202"/>
      <point x="200" y="214"/>
      <point x="200" y="229" type="curve" smooth="yes"/>
    </contour>
  </outline>
</glyph>
<glyph name="quotedbl" format="1">
  <advance width="420"/>
  <unicode hex="0022"/>
  <outline>
    <contour>
      <point x="185" y="674" type="line" name="hr00" smooth="yes"/>
      <point x="187" y="694"/>
      <point x="179" y="710"/>
      <point x="158" y="710" type="curve" smooth="yes"/>
      <point x="74" y="710" type="line" smooth="yes"/>
      <point x="53" y="710"/>
      <point x="45" y="694"/>
      <point x="47" y="674" type="curve" smooth="yes"/>
      <point x="69" y="496" type="line" smooth="yes"/>
      <point x="71" y="478"/>
      <point x="83" y="468"/>
      <point x="97" y="468" type="curve" smooth="yes"/>
      <point x="135" y="468" type="line" smooth="yes"/>
      <point x="149" y="468"/>
      <point x="161" y="478"/>
      <point x="163" y="496" type="curve" smooth="yes"/>
    </contour>
    <contour>
      <point x="373" y="674" type="line" smooth="yes"/>
      <point x="375" y="694"/>
      <point x="367" y="710"/>
      <point x="346" y="710" type="curve" smooth="yes"/>
      <point x="262" y="710" type="line" smooth="yes"/>
      <point x="241" y="710"/>
      <point x="233" y="694"/>
      <point x="235" y="674" type="curve" smooth="yes"/>
      <point x="257" y="496" type="line" smooth="yes"/>
      <point x="259" y="478"/>
      <point x="271" y="468"/>
      <point x="285" y="468" type="curve" smooth="yes"/>
      <point x="323" y="468" type="line" smooth="yes"/>
      <point x="337" y="468"/>
      <point x="349" y="478"/>
      <point x="351" y="496" type="curve" smooth="yes"/>
    </contour>
  </outline>
</glyph>
<glyph name="parenleft" format="1">
  <advance width="368"/>
  <unicode hex="0028"/>
  <outline>
    <contour>
      <point x="313" y="-39" type="curve" name="hr00" smooth="yes"/>
      <point x="205" y="-29"/>
      <point x="179" y="91"/>
      <point x="179" y="309" type="curve" smooth="yes"/>
      <point x="179" y="527"/>
      <point x="205" y="646"/>
      <point x="313" y="656" type="curve" smooth="yes"/>
      <point x="328" y="657"/>
      <point x="340" y="668"/>
      <point x="340" y="683" type="curve" smooth="yes"/>
      <point x="340" y="749" type="line" smooth="yes"/>
      <point x="340" y="764"/>
      <point x="328" y="776"/>
      <point x="313" y="776" type="curve" smooth="yes"/>
      <point x="113" y="776"/>
      <point x="49" y="609"/>
      <point x="49" y="309" type="curve" smooth="yes"/>
      <point x="49" y="9"/>
      <point x="113" y="-159"/>
      <point x="313" y="-159" type="curve" smooth="yes"/>
      <point x="328" y="-159"/>
      <point x="340" y="-147"/>
      <point x="340" y="-132" type="curve" smooth="yes"/>
      <point x="340" y="-66" type="line" smooth="yes"/>
      <point x="340" y="-51"/>
      <point x="328" y="-40"/>
    </contour>
  </outline>
</glyph>
<glyph name="parenright" format="1">
  <advance width="368"/>
  <unicode hex="0029"/>
  <outline>
    <contour>
      <point x="55" y="-39" type="curve" name="hr00" smooth="yes"/>
      <point x="40" y="-40"/>
      <point x="28" y="-51"/>
      <point x="28" y="-66" type="curve" smooth="yes"/>
      <point x="28" y="-132" type="line" smooth="yes"/>
      <point x="28" y="-147"/>
      <point x="40" y="-159"/>
      <point x="55" y="-159" type="curve" smooth="yes"/>
      <point x="255" y="-159"/>
      <point x="319" y="9"/>
      <point x="319" y="309" type="curve" smooth="yes"/>
      <point x="319" y="609"/>
      <point x="255" y="776"/>
      <point x="55" y="776" type="curve" smooth="yes"/>
      <point x="40" y="776"/>
      <point x="28" y="764"/>
      <point x="28" y="749" type="curve" smooth="yes"/>
      <point x="28" y="683" type="line" smooth="yes"/>
      <point x="28" y="668"/>
      <point x="40" y="657"/>
      <point x="55" y="656" type="curve" smooth="yes"/>
      <point x="163" y="646"/>
      <point x="189" y="527"/>
      <point x="189" y="309" type="curve" smooth="yes"/>
      <point x="189" y="91"/>
      <point x="163" y="-29"/>
    </contour>
  </outline>
</glyph>
<glyph name="period" format="1">
  <advance width="261"/>
  <unicode hex="002E"/>
  <outline>
    <contour>
      <point x="84" y="152" type="line" name="hr00" smooth="yes"/>
      <point x="69" y="152"/>
      <point x="57" y="140"/>
      <point x="57" y="125" type="curve" smooth="yes"/>
      <point x="57" y="27" type="line" smooth="yes"/>
      <point x="57" y="12"/>
      <point x="69" y="0"/>
      <point x="84" y="0" type="curve" smooth="yes"/>
      <point x="177" y="0" type="line" smooth="yes"/>
      <point x="192" y="0"/>
      <point x="204" y="12"/>
      <point x="204" y="27" type="curve" smooth="yes"/>
      <point x="204" y="125" type="line" smooth="yes"/>
      <point x="204" y="140"/>
      <point x="192" y="152"/>
      <point x="177" y="152" type="curve" smooth="yes"/>
    </contour>
  </outline>
</glyph>
<glyph name="five" format="1">
  <advance width="610"/>
  <unicode hex="0035"/>
  <outline>
    <contour>
      <point x="69" y="334" type="line"/>
      <point x="69" y="319"/>
      <point x="81" y="307"/>
      <point x="96" y="307" type="curve" smooth="yes"/>
      <point x="188" y="307" type="line" smooth="yes"/>
      <point x="225" y="307"/>
      <point x="226" y="337"/>
      <point x="307" y="337" type="curve"/>
      <point x="383" y="336"/>
      <point x="434" y="291"/>
      <point x="434" y="231" type="curve" smooth="yes"/>
      <point x="434" y="160"/>
      <point x="383" y="115"/>
      <point x="307" y="115" type="curve" smooth="yes"/>
      <point x="246" y="115"/>
      <point x="193" y="129"/>
      <point x="176" y="190" type="curve" smooth="yes"/>
      <point x="172" y="204"/>
      <point x="160" y="214"/>
      <point x="147" y="214" type="curve" name="hr01" smooth="yes"/>
      <point x="66" y="214" type="line" smooth="yes"/>
      <point x="51" y="214"/>
      <point x="38" y="203"/>
      <point x="39" y="187" type="curve" smooth="yes"/>
      <point x="45" y="83"/>
      <point x="124" y="-10"/>
      <point x="307" y="-10" type="curve" smooth="yes"/>
      <point x="452" y="-10"/>
      <point x="569" y="61"/>
      <point x="569" y="231" type="curve" smooth="yes"/>
      <point x="569" y="380"/>
      <point x="457" y="462"/>
      <point x="307" y="462" type="curve" smooth="yes"/>
      <point x="284" y="462"/>
      <point x="246" y="461"/>
      <point x="210" y="447" type="curve"/>
      <point x="221" y="575" type="line"/>
      <point x="502" y="575" type="line" smooth="yes"/>
      <point x="517" y="575"/>
      <point x="529" y="587"/>
      <point x="529" y="602" type="curve" smooth="yes"/>
      <point x="529" y="673" type="line" smooth="yes"/>
      <point x="529" y="688"/>
      <point x="517" y="700"/>
      <point x="502" y="700" type="curve" smooth="yes"/>
      <point x="126" y="700" type="line" smooth="yes"/>
      <point x="111" y="700"/>
      <point x="99" y="688"/>
      <point x="99" y="673" type="curve"/>
    </contour>
  </outline>
</glyph>
<glyph name="eight" format="1">
  <advance width="650"/>
  <unicode hex="0038"/>
  <outline>
    <contour>
      <point x="49" y="208" type="curve" smooth="yes"/>
      <point x="49" y="78"/>
      <point x="157" y="-10"/>
      <point x="325" y="-10" type="curve" smooth="yes"/>
      <point x="493" y="-10"/>
      <point x="601" y="78"/>
      <point x="601" y="208" type="curve" smooth="yes"/>
      <point x="601" y="277"/>
      <point x="570" y="332"/>
      <point x="517" y="369" type="curve"/>
      <point x="554" y="403"/>
      <point x="576" y="449"/>
      <point x="576" y="505" type="curve" name="hr01" smooth="yes"/>
      <point x="576" y="628"/>
      <point x="469" y="710"/>
      <point x="325" y="710" type="curve" smooth="yes"/>
      <point x="181" y="710"/>
      <point x="74" y="628"/>
      <point x="74" y="505" type="curve" smooth="yes"/>
      <point x="74" y="449"/>
      <point x="95" y="403"/>
      <point x="133" y="369" type="curve"/>
      <point x="79" y="332"/>
      <point x="49" y="277"/>
    </contour>
    <contour>
      <point x="184" y="208" type="curve" smooth="yes"/>
      <point x="184" y="269"/>
      <point x="252" y="300"/>
      <point x="325" y="300" type="curve" smooth="yes"/>
      <point x="398" y="300"/>
      <point x="466" y="269"/>
      <point x="466" y="208" type="curve" smooth="yes"/>
      <point x="466" y="147"/>
      <point x="398" y="115"/>
      <point x="325" y="115" type="curve" smooth="yes"/>
      <point x="252" y="115"/>
      <point x="184" y="147"/>
    </contour>
    <contour>
      <point x="209" y="505" type="curve" name="hr03" smooth="yes"/>
      <point x="209" y="559"/>
      <point x="265" y="585"/>
      <point x="325" y="585" type="curve" smooth="yes"/>
      <point x="385" y="585"/>
      <point x="441" y="559"/>
      <point x="441" y="505" type="curve" smooth="yes"/>
      <point x="441" y="451"/>
      <point x="385" y="425"/>
      <point x="325" y="425" type="curve" smooth="yes"/>
      <point x="265" y="425"/>
      <point x="209" y="451"/>
    </contour>
  </outline>
</glyph>
<glyph name="P" format="1">
  <advance width="659"/>
  <unicode hex="0050"/>
  <outline>
    <contour>
      <point x="105" y="700" type="line" name="hr00" smooth="yes"/>
      <point x="90" y="700"/>
      <point x="78" y="688"/>
      <point x="78" y="673" type="curve" smooth="yes"/>
      <point x="78" y="27" type="line" smooth="yes"/>
      <point x="78" y="12"/>
      <point x="90" y="0"/>
      <point x="105" y="0" type="curve" smooth="yes"/>
      <point x="186" y="0" type="line" smooth="yes"/>
      <point x="201" y="0"/>
      <point x="213" y="12"/>
      <point x="213" y="27" type="curve" smooth="yes"/>
      <point x="213" y="250" type="line"/>
      <point x="373" y="250" type="line" smooth="yes"/>
      <point x="533" y="250"/>
      <point x="628" y="330"/>
      <point x="628" y="476" type="curve" smooth="yes"/>
      <point x="628" y="622"/>
      <point x="533" y="700"/>
      <point x="373" y="700" type="curve" smooth="yes"/>
    </contour>
    <contour>
      <point x="213" y="575" type="line"/>
      <point x="368" y="575" type="line" smooth="yes"/>
      <point x="444" y="575"/>
      <point x="493" y="551"/>
      <point x="493" y="476" type="curve" smooth="yes"/>
      <point x="493" y="401"/>
      <point x="444" y="375"/>
      <point x="368" y="375" type="curve" smooth="yes"/>
      <point x="213" y="375" type="line"/>
    </contour>
  </outline>
</glyph>
<glyph name="V" format="1">
  <advance width="664"/>
  <unicode hex="0056"/>
  <outline>
    <contour>
      <point x="164" y="675" type="line" name="hr00"/>
      <point x="160" y="686"/>
      <point x="151" y="700"/>
      <point x="131" y="700" type="curve"/>
      <point x="55" y="700" type="line"/>
      <point x="40" y="700"/>
      <point x="28" y="688"/>
      <point x="28" y="673" type="curve" smooth="yes"/>
      <point x="28" y="671"/>
      <point x="28" y="669"/>
      <point x="30" y="663" type="curve"/>
      <point x="254" y="34" type="line"/>
      <point x="262" y="12"/>
      <point x="271" y="0"/>
      <point x="292" y="0" type="curve"/>
      <point x="372" y="0" type="line"/>
      <point x="393" y="0"/>
      <point x="402" y="12"/>
      <point x="410" y="34" type="curve"/>
      <point x="634" y="663" type="line"/>
      <point x="636" y="669"/>
      <point x="636" y="671"/>
      <point x="636" y="673" type="curve" smooth="yes"/>
      <point x="636" y="688"/>
      <point x="624" y="700"/>
      <point x="609" y="700" type="curve"/>
      <point x="533" y="700" type="line"/>
      <point x="513" y="700"/>
      <point x="504" y="686"/>
      <point x="500" y="675" type="curve"/>
      <point x="332" y="198" type="line"/>
    </contour>
  </outline>
</glyph>
<glyph name="W" format="1">
  <advance width="802"/>
  <unicode hex="0057"/>
  <outline>
    <contour>
      <point x="487" y="34" type="line" name="hr00"/>
      <point x="493" y="14"/>
      <point x="502" y="0"/>
      <point x="522" y="0" type="curve"/>
      <point x="603" y="0" type="line"/>
      <point x="623" y="0"/>
      <point x="634" y="14"/>
      <point x="638" y="34" type="curve"/>
      <point x="766" y="665" type="line"/>
      <point x="767" y="670"/>
      <point x="767" y="672"/>
      <point x="767" y="673" type="curve" smooth="yes"/>
      <point x="767" y="688"/>
      <point x="755" y="700"/>
      <point x="740" y="700" type="curve"/>
      <point x="666" y="700" type="line"/>
      <point x="653" y="700"/>
      <point x="639" y="693"/>
      <point x="635" y="673" type="curve"/>
      <point x="551" y="249" type="line"/>
      <point x="477" y="516" type="line"/>
      <point x="475" y="525"/>
      <point x="466" y="545"/>
      <point x="442" y="545" type="curve"/>
      <point x="360" y="545" type="line"/>
      <point x="336" y="545"/>
      <point x="327" y="525"/>
      <point x="325" y="516" type="curve"/>
      <point x="251" y="249" type="line"/>
      <point x="167" y="673" type="line"/>
      <point x="163" y="693"/>
      <point x="149" y="700"/>
      <point x="136" y="700" type="curve"/>
      <point x="62" y="700" type="line"/>
      <point x="47" y="700"/>
      <point x="35" y="688"/>
      <point x="35" y="673" type="curve" smooth="yes"/>
      <point x="35" y="672"/>
      <point x="35" y="670"/>
      <point x="36" y="665" type="curve"/>
      <point x="164" y="34" type="line"/>
      <point x="168" y="14"/>
      <point x="179" y="0"/>
      <point x="199" y="0" type="curve"/>
      <point x="280" y="0" type="line"/>
      <point x="300" y="0"/>
      <point x="309" y="14"/>
      <point x="315" y="34" type="curve"/>
      <point x="401" y="333" type="line"/>
    </contour>
  </outline>
</glyph>
<glyph name="asciicircum" format="1">
  <advance width="432"/>
  <unicode hex="005E"/>
  <outline>
    <contour>
      <point x="186" y="745" type="line" name="hr00" smooth="yes"/>
      <point x="171" y="745"/>
      <point x="162" y="740"/>
      <point x="149" y="726" type="curve" smooth="yes"/>
      <point x="57" y="624" type="line" smooth="yes"/>
      <point x="54" y="621"/>
      <point x="52" y="616"/>
      <point x="52" y="611" type="curve" smooth="yes"/>
      <point x="52" y="601"/>
      <point x="58" y="595"/>
      <point x="68" y="595" type="curve" smooth="yes"/>
      <point x="111" y="595" type="line" smooth="yes"/>
      <point x="124" y="595"/>
      <point x="130" y="598"/>
      <point x="142" y="606" type="curve" smooth="yes"/>
      <point x="216" y="653" type="line"/>
      <point x="290" y="606" type="line" smooth="yes"/>
      <point x="302" y="598"/>
      <point x="308" y="595"/>
      <point x="321" y="595" type="curve" smooth="yes"/>
      <point x="364" y="595" type="line" smooth="yes"/>
      <point x="374" y="595"/>
      <point x="380" y="601"/>
      <point x="380" y="611" type="curve" smooth="yes"/>
      <point x="380" y="616"/>
      <point x="378" y="621"/>
      <point x="375" y="624" type="curve" smooth="yes"/>
      <point x="283" y="726" type="line" smooth="yes"/>
      <point x="270" y="740"/>
      <point x="261" y="745"/>
      <point x="246" y="745" type="curve" smooth="yes"/>
    </contour>
  </outline>
</glyph>
<glyph name="underscore" format="1">
  <advance width="739"/>
  <unicode hex="005F"/>
  <outline>
    <contour>
      <point x="662" y="-60" type="line" name="hr00" smooth="yes"/>
      <point x="677" y="-60"/>
      <point x="689" y="-48"/>
      <point x="689" y="-33" type="curve" smooth="yes"/>
      <point x="689" y="33" type="line" smooth="yes"/>
      <point x="689" y="48"/>
      <point x="677" y="60"/>
      <point x="662" y="60" type="curve" smooth="yes"/>
      <point x="77" y="60" type="line" smooth="yes"/>
      <point x="62" y="60"/>
      <point x="50" y="48"/>
      <point x="50" y="33" type="curve" smooth="yes"/>
      <point x="50" y="-33" type="line" smooth="yes"/>
      <point x="50" y="-48"/>
      <point x="62" y="-60"/>
      <point x="77" y="-60" type="curve" smooth="yes"/>
    </contour>
  </outline>
</glyph>
<glyph name="c" format="1">
  <advance width="577"/>
  <unicode hex="0063"/>
  <outline>
    <contour>
      <point x="174" y="295" type="curve" smooth="yes"/>
      <point x="182" y="378"/>
      <point x="238" y="410"/>
      <point x="293" y="410" type="curve" smooth="yes"/>
      <point x="359" y="410"/>
      <point x="380" y="387"/>
      <point x="401" y="356" type="curve" smooth="yes"/>
      <point x="409" y="344"/>
      <point x="419" y="329"/>
      <point x="434" y="329" type="curve" name="hr01" smooth="yes"/>
      <point x="510" y="329" type="line" smooth="yes"/>
      <point x="525" y="329"/>
      <point x="538" y="341"/>
      <point x="537" y="356" type="curve" smooth="yes"/>
      <point x="534" y="413"/>
      <point x="465" y="530"/>
      <point x="293" y="530" type="curve" smooth="yes"/>
      <point x="147" y="530"/>
      <point x="53" y="423"/>
      <point x="44" y="300" type="curve" smooth="yes"/>
      <point x="42" y="275"/>
      <point x="42" y="243"/>
      <point x="44" y="219" type="curve" smooth="yes"/>
      <point x="54" y="97"/>
      <point x="147" y="-10"/>
      <point x="293" y="-10" type="curve" smooth="yes"/>
      <point x="465" y="-10"/>
      <point x="534" y="107"/>
      <point x="537" y="164" type="curve" smooth="yes"/>
      <point x="538" y="179"/>
      <point x="525" y="191"/>
      <point x="510" y="191" type="curve" smooth="yes"/>
      <point x="434" y="191" type="line" smooth="yes"/>
      <point x="419" y="191"/>
      <point x="409" y="176"/>
      <point x="401" y="164" type="curve" smooth="yes"/>
      <point x="380" y="133"/>
      <point x="359" y="110"/>
      <point x="293" y="110" type="curve" name="hr02" smooth="yes"/>
      <point x="238" y="110"/>
      <point x="182" y="142"/>
      <point x="174" y="225" type="curve" smooth="yes"/>
      <point x="172" y="245"/>
      <point x="172" y="275"/>
    </contour>
  </outline>
</glyph>
<glyph name="e" format="1">
  <advance width="574"/>
  <unicode hex="0065"/>
  <outline>
    <contour>
      <point x="43" y="260" type="curve" smooth="yes"/>
      <point x="43" y="100"/>
      <point x="138" y="-10"/>
      <point x="288" y="-10" type="curve" smooth="yes"/>
      <point x="438" y="-10"/>
      <point x="515" y="83"/>
      <point x="517" y="120" type="curve" smooth="yes"/>
      <point x="518" y="135"/>
      <point x="505" y="147"/>
      <point x="490" y="147" type="curve" smooth="yes"/>
      <point x="410" y="147" type="line" smooth="yes"/>
      <point x="394" y="147"/>
      <point x="387" y="144"/>
      <point x="373" y="133" type="curve" smooth="yes"/>
      <point x="356" y="120"/>
      <point x="330" y="110"/>
      <point x="288" y="110" type="curve" name="hr01" smooth="yes"/>
      <point x="229" y="110"/>
      <point x="173" y="144"/>
      <point x="173" y="204" type="curve"/>
      <point x="507" y="204" type="line" smooth="yes"/>
      <point x="522" y="204"/>
      <point x="534" y="216"/>
      <point x="534" y="231" type="curve" smooth="yes"/>
      <point x="534" y="276" type="line" smooth="yes"/>
      <point x="534" y="413"/>
      <point x="438" y="530"/>
      <point x="288" y="530" type="curve" smooth="yes"/>
      <point x="138" y="530"/>
      <point x="43" y="410"/>
    </contour>
    <contour>
      <point x="288" y="410" type="curve" smooth="yes"/>
      <point x="373" y="410"/>
      <point x="394" y="359"/>
      <point x="399" y="318" type="curve"/>
      <point x="173" y="318" type="line"/>
      <point x="178" y="359"/>
      <point x="212" y="410"/>
    </contour>
  </outline>
</glyph>
<glyph name="f" format="1">
  <advance width="427"/>
  <unicode hex="0066"/>
  <outline>
    <contour>
      <point x="245" y="555" type="line" name="hr00" smooth="yes"/>
      <point x="245" y="605"/>
      <point x="273" y="620"/>
      <point x="323" y="620" type="curve" smooth="yes"/>
      <point x="394" y="620" type="line" smooth="yes"/>
      <point x="409" y="620"/>
      <point x="421" y="632"/>
      <point x="421" y="647" type="curve" smooth="yes"/>
      <point x="421" y="713" type="line" smooth="yes"/>
      <point x="421" y="728"/>
      <point x="409" y="740"/>
      <point x="394" y="740" type="curve" smooth="yes"/>
      <point x="313" y="740" type="line" smooth="yes"/>
      <point x="193" y="740"/>
      <point x="115" y="694"/>
      <point x="115" y="565" type="curve" smooth="yes"/>
      <point x="115" y="520" type="line"/>
      <point x="49" y="520" type="line" smooth="yes"/>
      <point x="34" y="520"/>
      <point x="22" y="508"/>
      <point x="22" y="493" type="curve" smooth="yes"/>
      <point x="22" y="427" type="line" smooth="yes"/>
      <point x="22" y="412"/>
      <point x="34" y="400"/>
      <point x="49" y="400" type="curve" smooth="yes"/>
      <point x="115" y="400" type="line"/>
      <point x="115" y="27" type="line" smooth="yes"/>
      <point x="115" y="12"/>
      <point x="127" y="0"/>
      <point x="142" y="0" type="curve" smooth="yes"/>
      <point x="218" y="0" type="line" smooth="yes"/>
      <point x="233" y="0"/>
      <point x="245" y="12"/>
      <point x="245" y="27" type="curve" smooth="yes"/>
      <point x="245" y="400" type="line"/>
      <point x="384" y="400" type="line" smooth="yes"/>
      <point x="399" y="400"/>
      <point x="411" y="412"/>
      <point x="411" y="427" type="curve" smooth="yes"/>
      <point x="411" y="493" type="line" smooth="yes"/>
      <point x="411" y="508"/>
      <point x="399" y="520"/>
      <point x="384" y="520" type="curve" smooth="yes"/>
      <point x="245" y="520" type="line"/>
    </contour>
  </outline>
</glyph>
<glyph name="m" format="1">
  <advance width="919"/>
  <unicode hex="006D"/>
  <outline>
    <contour>
      <point x="199" y="493" type="line" smooth="yes"/>
      <point x="199" y="508"/>
      <point x="187" y="520"/>
      <point x="172" y="520" type="curve" smooth="yes"/>
      <point x="96" y="520" type="line" smooth="yes"/>
      <point x="81" y="520"/>
      <point x="69" y="508"/>
      <point x="69" y="493" type="curve" smooth="yes"/>
      <point x="69" y="27" type="line" smooth="yes"/>
      <point x="69" y="12"/>
      <point x="81" y="0"/>
      <point x="96" y="0" type="curve" smooth="yes"/>
      <point x="172" y="0" type="line" smooth="yes"/>
      <point x="187" y="0"/>
      <point x="199" y="12"/>
      <point x="199" y="27" type="curve" smooth="yes"/>
      <point x="199" y="291" type="line" smooth="yes"/>
      <point x="199" y="381"/>
      <point x="244" y="413"/>
      <point x="298" y="413" type="curve" name="hr01" smooth="yes"/>
      <point x="360" y="413"/>
      <point x="397" y="381"/>
      <point x="397" y="291" type="curve" smooth="yes"/>
      <point x="397" y="27" type="line" smooth="yes"/>
      <point x="397" y="12"/>
      <point x="409" y="0"/>
      <point x="424" y="0" type="curve" smooth="yes"/>
      <point x="500" y="0" type="line" smooth="yes"/>
      <point x="515" y="0"/>
      <point x="527" y="12"/>
      <point x="527" y="27" type="curve" smooth="yes"/>
      <point x="527" y="296" type="line"/>
      <point x="529" y="382"/>
      <point x="573" y="413"/>
      <point x="626" y="413" type="curve" smooth="yes"/>
      <point x="688" y="413"/>
      <point x="725" y="381"/>
      <point x="725" y="291" type="curve" smooth="yes"/>
      <point x="725" y="27" type="line" smooth="yes"/>
      <point x="725" y="12"/>
      <point x="737" y="0"/>
      <point x="752" y="0" type="curve" smooth="yes"/>
      <point x="828" y="0" type="line" smooth="yes"/>
      <point x="843" y="0"/>
      <point x="855" y="12"/>
      <point x="855" y="27" type="curve" smooth="yes"/>
      <point x="855" y="296" type="line" smooth="yes"/>
      <point x="855" y="421"/>
      <point x="808" y="530"/>
      <point x="656" y="530" type="curve" smooth="yes"/>
      <point x="598" y="530"/>
      <point x="530" y="499"/>
      <point x="494" y="445" type="curve"/>
      <point x="464" y="496"/>
      <point x="412" y="530"/>
      <point x="328" y="530" type="curve" smooth="yes"/>
      <point x="279" y="530"/>
      <point x="231" y="509"/>
      <point x="199" y="470" type="curve"/>
    </contour>
  </outline>
</glyph>
<glyph name="braceright" format="1">
  <advance width="398"/>
  <unicode hex="007D"/>
  <outline>
    <contour>
      <point x="29" y="-132" type="line" smooth="yes"/>
      <point x="29" y="-147"/>
      <point x="41" y="-159"/>
      <point x="56" y="-159" type="curve" smooth="yes"/>
      <point x="194" y="-159"/>
      <point x="287" y="-65"/>
      <point x="287" y="114" type="curve" smooth="yes"/>
      <point x="287" y="177"/>
      <point x="305" y="222"/>
      <point x="344" y="238" type="curve" smooth="yes"/>
      <point x="361" y="245" type="line" smooth="yes"/>
      <point x="381" y="254"/>
      <point x="390" y="266"/>
      <point x="390" y="282" type="curve" name="hr01" smooth="yes"/>
      <point x="390" y="334" type="line" smooth="yes"/>
      <point x="390" y="350"/>
      <point x="381" y="362"/>
      <point x="361" y="371" type="curve" smooth="yes"/>
      <point x="344" y="378" type="line" smooth="yes"/>
      <point x="305" y="394"/>
      <point x="287" y="439"/>
      <point x="287" y="502" type="curve" name="hr02" smooth="yes"/>
      <point x="287" y="681"/>
      <point x="194" y="776"/>
      <point x="56" y="776" type="curve" smooth="yes"/>
      <point x="41" y="776"/>
      <point x="29" y="764"/>
      <point x="29" y="749" type="curve" smooth="yes"/>
      <point x="29" y="683" type="line" smooth="yes"/>
      <point x="29" y="668"/>
      <point x="41" y="656"/>
      <point x="56" y="656" type="curve" smooth="yes"/>
      <point x="121" y="656"/>
      <point x="157" y="592"/>
      <point x="157" y="469" type="curve" smooth="yes"/>
      <point x="157" y="372"/>
      <point x="196" y="332"/>
      <point x="232" y="308" type="curve"/>
      <point x="196" y="284"/>
      <point x="157" y="244"/>
      <point x="157" y="147" type="curve" smooth="yes"/>
      <point x="157" y="24"/>
      <point x="121" y="-39"/>
      <point x="56" y="-39" type="curve" smooth="yes"/>
      <point x="41" y="-39"/>
      <point x="29" y="-51"/>
      <point x="29" y="-66" type="curve" smooth="yes"/>
    </contour>
  </outline>
</glyph>
<glyph name="sterling" format="1">
  <advance width="717"/>
  <unicode hex="00A3"/>
  <outline>
    <contour>
      <point x="125" y="434" type="curve" smooth="yes"/>
      <point x="125" y="420"/>
      <point x="125" y="408"/>
      <point x="126" y="395" type="curve"/>
      <point x="69" y="395" type="line"/>
      <point x="56" y="395"/>
      <point x="47" y="386"/>
      <point x="47" y="373" type="curve"/>
      <point x="47" y="317" type="line"/>
      <point x="47" y="304"/>
      <point x="56" y="295"/>
      <point x="69" y="295" type="curve"/>
      <point x="140" y="295" type="line"/>
      <point x="145" y="259"/>
      <point x="150" y="224"/>
      <point x="151" y="187" type="curve"/>
      <point x="80" y="155"/>
      <point x="42" y="86"/>
      <point x="42" y="22" type="curve" smooth="yes"/>
      <point x="42" y="10"/>
      <point x="52" y="0"/>
      <point x="64" y="0" type="curve"/>
      <point x="152" y="0" type="line"/>
      <point x="163" y="0"/>
      <point x="173" y="9"/>
      <point x="178" y="22" type="curve" smooth="yes"/>
      <point x="193" y="58"/>
      <point x="213" y="81"/>
      <point x="250" y="81" type="curve" smooth="yes"/>
      <point x="316" y="81"/>
      <point x="342" y="-11"/>
      <point x="477" y="-11" type="curve" name="hr01" smooth="yes"/>
      <point x="604" y="-11"/>
      <point x="675" y="86"/>
      <point x="675" y="173" type="curve" smooth="yes"/>
      <point x="675" y="185"/>
      <point x="665" y="195"/>
      <point x="653" y="195" type="curve"/>
      <point x="565" y="195" type="line"/>
      <point x="554" y="195"/>
      <point x="544" y="186"/>
      <point x="539" y="173" type="curve" smooth="yes"/>
      <point x="524" y="137"/>
      <point x="504" y="114"/>
      <point x="467" y="114" type="curve" name="hr02" smooth="yes"/>
      <point x="413" y="114"/>
      <point x="384" y="184"/>
      <point x="286" y="202" type="curve"/>
      <point x="284" y="233"/>
      <point x="280" y="264"/>
      <point x="275" y="295" type="curve"/>
      <point x="450" y="295" type="line"/>
      <point x="463" y="295"/>
      <point x="472" y="304"/>
      <point x="472" y="317" type="curve"/>
      <point x="472" y="373" type="line"/>
      <point x="472" y="386"/>
      <point x="463" y="395"/>
      <point x="450" y="395" type="curve"/>
      <point x="261" y="395" type="line"/>
      <point x="260" y="408"/>
      <point x="260" y="421"/>
      <point x="260" y="434" type="curve" smooth="yes"/>
      <point x="260" y="518"/>
      <point x="304" y="585"/>
      <point x="388" y="585" type="curve" smooth="yes"/>
      <point x="482" y="585"/>
      <point x="512" y="527"/>
      <point x="522" y="474" type="curve" smooth="yes"/>
      <point x="524" y="462"/>
      <point x="533" y="452"/>
      <point x="544" y="452" type="curve"/>
      <point x="635" y="452" type="line"/>
      <point x="647" y="452"/>
      <point x="657" y="462"/>
      <point x="657" y="474" type="curve" smooth="yes"/>
      <point x="657" y="582"/>
      <point x="575" y="710"/>
      <point x="388" y="710" type="curve" smooth="yes"/>
      <point x="224" y="710"/>
      <point x="125" y="595"/>
    </contour>
  </outline>
</glyph>
<glyph name="currency" format="1">
  <advance width="606"/>
  <unicode hex="00A4"/>
  <outline>
    <contour>
      <point x="73" y="300" type="curve" name="hr00" smooth="yes"/>
      <point x="73" y="258"/>
      <point x="84" y="218"/>
      <point x="104" y="184" type="curve"/>
      <point x="61" y="142" type="line"/>
      <point x="51" y="131"/>
      <point x="51" y="114"/>
      <point x="61" y="103" type="curve"/>
      <point x="106" y="59" type="line"/>
      <point x="116" y="48"/>
      <point x="133" y="48"/>
      <point x="144" y="59" type="curve"/>
      <point x="186" y="101" type="line"/>
      <point x="220" y="81"/>
      <point x="260" y="70"/>
      <point x="303" y="70" type="curve" smooth="yes"/>
      <point x="345" y="70"/>
      <point x="385" y="81"/>
      <point x="419" y="101" type="curve"/>
      <point x="462" y="59" type="line"/>
      <point x="473" y="48"/>
      <point x="490" y="48"/>
      <point x="500" y="59" type="curve"/>
      <point x="545" y="103" type="line"/>
      <point x="555" y="114"/>
      <point x="555" y="131"/>
      <point x="545" y="142" type="curve"/>
      <point x="501" y="184" type="line"/>
      <point x="521" y="218"/>
      <point x="533" y="258"/>
      <point x="533" y="300" type="curve" smooth="yes"/>
      <point x="533" y="342"/>
      <point x="521" y="382"/>
      <point x="501" y="416" type="curve"/>
      <point x="544" y="459" type="line"/>
      <point x="555" y="470"/>
      <point x="555" y="487"/>
      <point x="544" y="497" type="curve"/>
      <point x="500" y="542" type="line"/>
      <point x="489" y="552"/>
      <point x="472" y="552"/>
      <point x="461" y="542" type="curve"/>
      <point x="418" y="498" type="line"/>
      <point x="384" y="518"/>
      <point x="345" y="530"/>
      <point x="303" y="530" type="curve" smooth="yes"/>
      <point x="261" y="530"/>
      <point x="221" y="518"/>
      <point x="187" y="498" type="curve"/>
      <point x="145" y="542" type="line"/>
      <point x="134" y="552"/>
      <point x="117" y="552"/>
      <point x="106" y="542" type="curve"/>
      <point x="62" y="497" type="line"/>
      <point x="51" y="487"/>
      <point x="51" y="470"/>
      <point x="62" y="459" type="curve"/>
      <point x="104" y="416" type="line"/>
      <point x="84" y="382"/>
      <point x="73" y="342"/>
    </contour>
    <contour>
      <point x="190" y="300" type="curve" smooth="yes"/>
      <point x="190" y="362"/>
      <point x="241" y="413"/>
      <point x="303" y="413" type="curve" smooth="yes"/>
      <point x="365" y="413"/>
      <point x="416" y="362"/>
      <point x="416" y="300" type="curve" smooth="yes"/>
      <point x="416" y="238"/>
      <point x="365" y="187"/>
      <point x="303" y="187" type="curve" smooth="yes"/>
      <point x="241" y="187"/>
      <point x="190" y="238"/>
    </contour>
  </outline>
</glyph>
<glyph name="yen" format="1">
  <advance width="658"/>
  <unicode hex="00A5"/>
  <outline>
    <contour>
      <point x="109" y="313" type="line" name="hr00" smooth="yes"/>
      <point x="96" y="313"/>
      <point x="87" y="304"/>
      <point x="87" y="291" type="curve" smooth="yes"/>
      <point x="87" y="255" type="line" smooth="yes"/>
      <point x="87" y="242"/>
      <point x="96" y="233"/>
      <point x="109" y="233" type="curve" smooth="yes"/>
      <point x="261" y="233" type="line"/>
      <point x="261" y="193" type="line"/>
      <point x="109" y="193" type="line" smooth="yes"/>
      <point x="96" y="193"/>
      <point x="87" y="184"/>
      <point x="87" y="171" type="curve" smooth="yes"/>
      <point x="87" y="135" type="line" smooth="yes"/>
      <point x="87" y="122"/>
      <point x="96" y="113"/>
      <point x="109" y="113" type="curve" smooth="yes"/>
      <point x="261" y="113" type="line"/>
      <point x="261" y="27" type="line" smooth="yes"/>
      <point x="261" y="12"/>
      <point x="273" y="0"/>
      <point x="288" y="0" type="curve" smooth="yes"/>
      <point x="370" y="0" type="line" smooth="yes"/>
      <point x="385" y="0"/>
      <point x="397" y="12"/>
      <point x="397" y="27" type="curve" smooth="yes"/>
      <point x="397" y="113" type="line"/>
      <point x="549" y="113" type="line" smooth="yes"/>
      <point x="562" y="113"/>
      <point x="571" y="122"/>
      <point x="571" y="135" type="curve" smooth="yes"/>
      <point x="571" y="171" type="line" smooth="yes"/>
      <point x="571" y="184"/>
      <point x="562" y="193"/>
      <point x="549" y="193" type="curve" smooth="yes"/>
      <point x="397" y="193" type="line"/>
      <point x="397" y="233" type="line"/>
      <point x="549" y="233" type="line" smooth="yes"/>
      <point x="562" y="233"/>
      <point x="571" y="242"/>
      <point x="571" y="255" type="curve" smooth="yes"/>
      <point x="571" y="291" type="line" smooth="yes"/>
      <point x="571" y="304"/>
      <point x="562" y="313"/>
      <point x="549" y="313" type="curve" smooth="yes"/>
      <point x="429" y="313" type="line"/>
      <point x="628" y="669" type="line" smooth="yes"/>
      <point x="629" y="671"/>
      <point x="630" y="675"/>
      <point x="630" y="678" type="curve" smooth="yes"/>
      <point x="630" y="690"/>
      <point x="620" y="700"/>
      <point x="608" y="700" type="curve" smooth="yes"/>
      <point x="521" y="700" type="line" smooth="yes"/>
      <point x="494" y="700"/>
      <point x="482" y="681"/>
      <point x="479" y="675" type="curve" smooth="yes"/>
      <point x="329" y="407" type="line"/>
      <point x="179" y="675" type="line" smooth="yes"/>
      <point x="176" y="681"/>
      <point x="164" y="700"/>
      <point x="137" y="700" type="curve" smooth="yes"/>
      <point x="50" y="700" type="line" smooth="yes"/>
      <point x="38" y="700"/>
      <point x="28" y="690"/>
      <point x="28" y="678" type="curve" smooth="yes"/>
      <point x="28" y="675"/>
      <point x="29" y="671"/>
      <point x="30" y="669" type="curve" smooth="yes"/>
      <point x="229" y="313" type="line"/>
    </contour>
  </outline>
</glyph>
<glyph name="plusminus" format="1">
  <advance width="559"/>
  <unicode hex="00B1"/>
  <outline>
    <contour>
      <point x="463" y="0" type="line" name="hr00" smooth="yes"/>
      <point x="478" y="0"/>
      <point x="490" y="12"/>
      <point x="490" y="27" type="curve" smooth="yes"/>
      <point x="490" y="93" type="line" smooth="yes"/>
      <point x="490" y="108"/>
      <point x="478" y="120"/>
      <point x="463" y="120" type="curve" smooth="yes"/>
      <point x="96" y="120" type="line" smooth="yes"/>
      <point x="81" y="120"/>
      <point x="69" y="108"/>
      <point x="69" y="93" type="curve" smooth="yes"/>
      <point x="69" y="27" type="line" smooth="yes"/>
      <point x="69" y="12"/>
      <point x="81" y="0"/>
      <point x="96" y="0" type="curve" smooth="yes"/>
    </contour>
    <contour>
      <point x="483" y="341" type="line" smooth="yes"/>
      <point x="498" y="341"/>
      <point x="510" y="353"/>
      <point x="510" y="368" type="curve" smooth="yes"/>
      <point x="510" y="434" type="line" smooth="yes"/>
      <point x="510" y="449"/>
      <point x="498" y="461"/>
      <point x="483" y="461" type="curve" smooth="yes"/>
      <point x="345" y="461" type="line"/>
      <point x="345" y="602" type="line" smooth="yes"/>
      <point x="345" y="617"/>
      <point x="333" y="629"/>
      <point x="318" y="629" type="curve" smooth="yes"/>
      <point x="242" y="629" type="line" smooth="yes"/>
      <point x="227" y="629"/>
      <point x="215" y="617"/>
      <point x="215" y="602" type="curve" smooth="yes"/>
      <point x="215" y="461" type="line"/>
      <point x="76" y="461" type="line" smooth="yes"/>
      <point x="61" y="461"/>
      <point x="49" y="449"/>
      <point x="49" y="434" type="curve" smooth="yes"/>
      <point x="49" y="368" type="line" smooth="yes"/>
      <point x="49" y="353"/>
      <point x="61" y="341"/>
      <point x="76" y="341" type="curve" smooth="yes"/>
      <point x="215" y="341" type="line"/>
      <point x="215" y="199" type="line" smooth="yes"/>
      <point x="215" y="184"/>
      <point x="227" y="172"/>
      <point x="242" y="172" type="curve" smooth="yes"/>
      <point x="318" y="172" type="line" smooth="yes"/>
      <point x="333" y="172"/>
      <point x="345" y="184"/>
      <point x="345" y="199" type="curve" smooth="yes"/>
      <point x="345" y="341" type="line"/>
    </contour>
  </outline>
</glyph>
<glyph name="paragraph" format="1">
  <advance width="561"/>
  <unicode hex="00B6"/>
  <outline>
    <contour>
      <point x="28" y="513" type="curve" name="hr00" smooth="yes"/>
      <point x="28" y="410"/>
      <point x="112" y="326"/>
      <point x="215" y="326" type="curve"/>
      <point x="215" y="-73" type="line" smooth="yes"/>
      <point x="215" y="-88"/>
      <point x="227" y="-100"/>
      <point x="242" y="-100" type="curve" smooth="yes"/>
      <point x="286" y="-100" type="line" smooth="yes"/>
      <point x="301" y="-100"/>
      <point x="313" y="-88"/>
      <point x="313" y="-73" type="curve" smooth="yes"/>
      <point x="313" y="602" type="line"/>
      <point x="392" y="602" type="line"/>
      <point x="392" y="-73" type="line" smooth="yes"/>
      <point x="392" y="-88"/>
      <point x="404" y="-100"/>
      <point x="419" y="-100" type="curve" smooth="yes"/>
      <point x="463" y="-100" type="line" smooth="yes"/>
      <point x="478" y="-100"/>
      <point x="490" y="-88"/>
      <point x="490" y="-73" type="curve" smooth="yes"/>
      <point x="490" y="673" type="line" smooth="yes"/>
      <point x="490" y="688"/>
      <point x="478" y="700"/>
      <point x="463" y="700" type="curve" smooth="yes"/>
      <point x="215" y="700" type="line" smooth="yes"/>
      <point x="112" y="700"/>
      <point x="28" y="616"/>
    </contour>
  </outline>
</glyph>
<glyph name="eth" format="1">
  <advance width="592"/>
  <unicode hex="00F0"/>
  <outline>
    <contour>
      <point x="229" y="588" type="line" name="hr00" smooth="yes"/>
      <point x="213" y="582"/>
      <point x="207" y="573"/>
      <point x="207" y="555" type="curve" smooth="yes"/>
      <point x="207" y="507" type="line" smooth="yes"/>
      <point x="207" y="495"/>
      <point x="216" y="486"/>
      <point x="228" y="486" type="curve" smooth="yes"/>
      <point x="230" y="486"/>
      <point x="234" y="487"/>
      <point x="239" y="489" type="curve" smooth="yes"/>
      <point x="331" y="525" type="line"/>
      <point x="346" y="505"/>
      <point x="359" y="484"/>
      <point x="370" y="461" type="curve"/>
      <point x="345" y="467"/>
      <point x="320" y="470"/>
      <point x="293" y="470" type="curve" smooth="yes"/>
      <point x="154" y="470"/>
      <point x="42" y="392"/>
      <point x="42" y="230" type="curve" smooth="yes"/>
      <point x="42" y="68"/>
      <point x="154" y="-10"/>
      <point x="293" y="-10" type="curve" smooth="yes"/>
      <point x="432" y="-10"/>
      <point x="544" y="68"/>
      <point x="544" y="240" type="curve" smooth="yes"/>
      <point x="544" y="396"/>
      <point x="511" y="493"/>
      <point x="452" y="572" type="curve"/>
      <point x="485" y="585" type="line" smooth="yes"/>
      <point x="501" y="591"/>
      <point x="507" y="600"/>
      <point x="507" y="618" type="curve" smooth="yes"/>
      <point x="507" y="666" type="line" smooth="yes"/>
      <point x="507" y="678"/>
      <point x="498" y="687"/>
      <point x="486" y="687" type="curve" smooth="yes"/>
      <point x="484" y="687"/>
      <point x="480" y="686"/>
      <point x="475" y="684" type="curve" smooth="yes"/>
      <point x="383" y="648" type="line"/>
      <point x="340" y="687" type="line" smooth="yes"/>
      <point x="330" y="695"/>
      <point x="320" y="700"/>
      <point x="304" y="700" type="curve" smooth="yes"/>
      <point x="198" y="700" type="line" smooth="yes"/>
      <point x="186" y="700"/>
      <point x="178" y="692"/>
      <point x="178" y="680" type="curve" smooth="yes"/>
      <point x="178" y="675"/>
      <point x="181" y="669"/>
      <point x="195" y="658" type="curve" smooth="yes"/>
      <point x="219" y="639"/>
      <point x="241" y="620"/>
      <point x="262" y="601" type="curve"/>
    </contour>
    <contour>
      <point x="172" y="230" type="curve" smooth="yes"/>
      <point x="172" y="297"/>
      <point x="214" y="350"/>
      <point x="293" y="350" type="curve" smooth="yes"/>
      <point x="372" y="350"/>
      <point x="414" y="297"/>
      <point x="414" y="230" type="curve" smooth="yes"/>
      <point x="414" y="163"/>
      <point x="372" y="110"/>
      <point x="293" y="110" type="curve" smooth="yes"/>
      <point x="214" y="110"/>
      <point x="172" y="163"/>
    </contour>
  </outline>
</glyph>
<glyph name="Iogonek" format="1">
  <advance width="297"/>
  <unicode hex="012E"/>
  <outline>
    <contour>
      <point x="192" y="0" type="line" smooth="yes"/>
      <point x="207" y="0"/>
      <point x="219" y="12"/>
      <point x="219" y="27" type="curve" smooth="yes"/>
      <point x="219" y="673" type="line" smooth="yes"/>
      <point x="219" y="688"/>
      <point x="207" y="700"/>
      <point x="192" y="700" type="curve" smooth="yes"/>
      <point x="111" y="700" type="line" smooth="yes"/>
      <point x="96" y="700"/>
      <point x="84" y="688"/>
      <point x="84" y="673" type="curve" smooth="yes"/>
      <point x="84" y="64" type="line"/>
      <point x="47" y="37"/>
      <point x="25" y="-7"/>
      <point x="25" y="-64" type="curve" name="hr01" smooth="yes"/>
      <point x="25" y="-159"/>
      <point x="87" y="-220"/>
      <point x="178" y="-220" type="curve" smooth="yes"/>
      <point x="197" y="-220" type="line" smooth="yes"/>
      <point x="210" y="-220"/>
      <point x="219" y="-211"/>
      <point x="219" y="-198" type="curve" name="hr02" smooth="yes"/>
      <point x="219" y="-150" type="line" smooth="yes"/>
      <point x="219" y="-137"/>
      <point x="210" y="-128"/>
      <point x="197" y="-128" type="curve" smooth="yes"/>
      <point x="182" y="-128" type="line" smooth="yes"/>
      <point x="148" y="-128"/>
      <point x="124" y="-105"/>
      <point x="124" y="-64" type="curve" name="hr03" smooth="yes"/>
      <point x="124" y="-25"/>
      <point x="145" y="-2"/>
      <point x="177" y="0" type="curve"/>
    </contour>
  </outline>
</glyph>
<glyph name="kgreenlandic" format="1">
  <advance width="572"/>
  <unicode hex="0138"/>
  <outline>
    <contour>
      <point x="391" y="17" type="line" name="hr00" smooth="yes"/>
      <point x="398" y="11"/>
      <point x="412" y="0"/>
      <point x="432" y="0" type="curve" smooth="yes"/>
      <point x="538" y="0" type="line" smooth="yes"/>
      <point x="551" y="0"/>
      <point x="562" y="11"/>
      <point x="562" y="24" type="curve" smooth="yes"/>
      <point x="562" y="30"/>
      <point x="560" y="35"/>
      <point x="552" y="43" type="curve"/>
      <point x="297" y="265" type="line"/>
      <point x="530" y="476" type="line"/>
      <point x="540" y="484"/>
      <point x="541" y="490"/>
      <point x="541" y="496" type="curve" smooth="yes"/>
      <point x="541" y="509"/>
      <point x="530" y="520"/>
      <point x="517" y="520" type="curve" smooth="yes"/>
      <point x="422" y="520" type="line" smooth="yes"/>
      <point x="404" y="520"/>
      <point x="391" y="509"/>
      <point x="383" y="503" type="curve"/>
      <point x="199" y="335" type="line"/>
      <point x="199" y="493" type="line" smooth="yes"/>
      <point x="199" y="508"/>
      <point x="187" y="520"/>
      <point x="172" y="520" type="curve" smooth="yes"/>
      <point x="96" y="520" type="line" smooth="yes"/>
      <point x="81" y="520"/>
      <point x="69" y="508"/>
      <point x="69" y="493" type="curve" smooth="yes"/>
      <point x="69" y="27" type="line" smooth="yes"/>
      <point x="69" y="12"/>
      <point x="81" y="0"/>
      <point x="96" y="0" type="curve" smooth="yes"/>
      <point x="172" y="0" type="line" smooth="yes"/>
      <point x="187" y="0"/>
      <point x="199" y="12"/>
      <point x="199" y="27" type="curve" smooth="yes"/>
      <point x="199" y="184" type="line"/>
    </contour>
  </outline>
</glyph>
<glyph name="Eng" format="1">
  <advance width="708"/>
  <unicode hex="014A"/>
  <outline>
    <contour>
      <point x="494" y="-32" type="line" name="hr00"/>
      <point x="494" y="-73"/>
      <point x="476" y="-100"/>
      <point x="416" y="-100" type="curve"/>
      <point x="401" y="-100" type="line"/>
      <point x="386" y="-100"/>
      <point x="374" y="-112"/>
      <point x="374" y="-127" type="curve"/>
      <point x="374" y="-198" type="line"/>
      <point x="374" y="-213"/>
      <point x="386" y="-225"/>
      <point x="401" y="-225" type="curve"/>
      <point x="439" y="-225" type="line"/>
      <point x="564" y="-225"/>
      <point x="629" y="-161"/>
      <point x="629" y="-27" type="curve"/>
      <point x="629" y="673" type="line"/>
      <point x="629" y="688"/>
      <point x="617" y="700"/>
      <point x="602" y="700" type="curve"/>
      <point x="521" y="700" type="line"/>
      <point x="506" y="700"/>
      <point x="494" y="688"/>
      <point x="494" y="673" type="curve"/>
      <point x="494" y="261" type="line"/>
      <point x="214" y="677" type="line"/>
      <point x="209" y="684"/>
      <point x="197" y="700"/>
      <point x="175" y="700" type="curve"/>
      <point x="105" y="700" type="line"/>
      <point x="90" y="700"/>
      <point x="78" y="688"/>
      <point x="78" y="673" type="curve"/>
      <point x="78" y="27" type="line"/>
      <point x="78" y="12"/>
      <point x="90" y="0"/>
      <point x="105" y="0" type="curve"/>
      <point x="186" y="0" type="line"/>
      <point x="201" y="0"/>
      <point x="213" y="12"/>
      <point x="213" y="27" type="curve"/>
      <point x="213" y="439" type="line"/>
      <point x="494" y="22" type="line"/>
    </contour>
  </outline>
</glyph>
<glyph name="eng" format="1">
  <advance width="621"/>
  <unicode hex="014B"/>
  <outline>
    <contour>
      <point x="557" y="296" type="line"/>
      <point x="557" y="421"/>
      <point x="505" y="530"/>
      <point x="343" y="530" type="curve" smooth="yes"/>
      <point x="279" y="530"/>
      <point x="229" y="501"/>
      <point x="199" y="470" type="curve"/>
      <point x="199" y="493" type="line"/>
      <point x="199" y="508"/>
      <point x="187" y="520"/>
      <point x="172" y="520" type="curve" name="hr01"/>
      <point x="96" y="520" type="line"/>
      <point x="81" y="520"/>
      <point x="69" y="508"/>
      <point x="69" y="493" type="curve"/>
      <point x="69" y="27" type="line"/>
      <point x="69" y="12"/>
      <point x="81" y="0"/>
      <point x="96" y="0" type="curve"/>
      <point x="172" y="0" type="line"/>
      <point x="187" y="0"/>
      <point x="199" y="12"/>
      <point x="199" y="27" type="curve"/>
      <point x="199" y="281" type="line"/>
      <point x="199" y="360"/>
      <point x="243" y="413"/>
      <point x="313" y="413" type="curve" name="hr02" smooth="yes"/>
      <point x="390" y="413"/>
      <point x="427" y="361"/>
      <point x="427" y="281" type="curve"/>
      <point x="427" y="-40" type="line"/>
      <point x="427" y="-81"/>
      <point x="412" y="-105"/>
      <point x="352" y="-105" type="curve"/>
      <point x="337" y="-105" type="line"/>
      <point x="322" y="-105"/>
      <point x="310" y="-117"/>
      <point x="310" y="-132" type="curve" name="hr03"/>
      <point x="310" y="-198" type="line"/>
      <point x="310" y="-213"/>
      <point x="322" y="-225"/>
      <point x="337" y="-225" type="curve"/>
      <point x="362" y="-225" type="line"/>
      <point x="487" y="-225"/>
      <point x="557" y="-164"/>
      <point x="557" y="-45" type="curve"/>
    </contour>
  </outline>
</glyph>
<glyph name="uogonek" format="1">
  <advance width="611"/>
  <unicode hex="0173"/>
  <outline>
    <contour>
      <point x="64" y="224" type="line"/>
      <point x="64" y="99"/>
      <point x="111" y="-10"/>
      <point x="273" y="-10" type="curve" smooth="yes"/>
      <point x="337" y="-10"/>
      <point x="382" y="19"/>
      <point x="412" y="50" type="curve"/>
      <point x="412" y="33" type="line"/>
      <point x="377" y="7"/>
      <point x="351" y="-26"/>
      <point x="345" y="-64" type="curve" smooth="yes"/>
      <point x="329" y="-158"/>
      <point x="402" y="-220"/>
      <point x="493" y="-220" type="curve"/>
      <point x="512" y="-220" type="line"/>
      <point x="525" y="-220"/>
      <point x="534" y="-211"/>
      <point x="534" y="-198" type="curve"/>
      <point x="534" y="-150" type="line"/>
      <point x="534" y="-137"/>
      <point x="525" y="-128"/>
      <point x="512" y="-128" type="curve"/>
      <point x="497" y="-128" type="line"/>
      <point x="463" y="-128"/>
      <point x="439" y="-105"/>
      <point x="439" y="-64" type="curve" smooth="yes"/>
      <point x="439" y="-25"/>
      <point x="460" y="-2"/>
      <point x="492" y="0" type="curve" name="hr01"/>
      <point x="515" y="0" type="line"/>
      <point x="530" y="0"/>
      <point x="542" y="12"/>
      <point x="542" y="27" type="curve"/>
      <point x="542" y="493" type="line"/>
      <point x="542" y="508"/>
      <point x="530" y="520"/>
      <point x="515" y="520" type="curve"/>
      <point x="439" y="520" type="line"/>
      <point x="424" y="520"/>
      <point x="412" y="508"/>
      <point x="412" y="493" type="curve"/>
      <point x="412" y="239" type="line"/>
      <point x="412" y="159"/>
      <point x="373" y="107"/>
      <point x="303" y="107" type="curve" name="hr02" smooth="yes"/>
      <point x="226" y="107"/>
      <point x="194" y="159"/>
      <point x="194" y="239" type="curve"/>
      <point x="194" y="493" type="line"/>
      <point x="194" y="508"/>
      <point x="182" y="520"/>
      <point x="167" y="520" type="curve"/>
      <point x="91" y="520" type="line"/>
      <point x="76" y="520"/>
      <point x="64" y="508"/>
      <point x="64" y="493" type="curve"/>
    </contour>
  </outline>
</glyph>
<glyph name="afii10058" format="1">
  <advance width="1016"/>
  <unicode hex="0409"/>
  <outline>
    <contour>
      <point x="451" y="575" type="line"/>
      <point x="451" y="27" type="line"/>
      <point x="451" y="12"/>
      <point x="463" y="0"/>
      <point x="478" y="0" type="curve"/>
      <point x="775" y="0" type="line"/>
      <point x="912" y="0"/>
      <point x="987" y="95"/>
      <point x="987" y="212" type="curve" smooth="yes"/>
      <point x="987" y="339"/>
      <point x="902" y="424"/>
      <point x="775" y="424" type="curve"/>
      <point x="586" y="424" type="line"/>
      <point x="586" y="673" type="line"/>
      <point x="586" y="688"/>
      <point x="574" y="700"/>
      <point x="559" y="700" type="curve"/>
      <point x="163" y="700" type="line"/>
      <point x="148" y="700"/>
      <point x="136" y="688"/>
      <point x="136" y="673" type="curve"/>
      <point x="136" y="203" type="line"/>
      <point x="136" y="150"/>
      <point x="106" y="115"/>
      <point x="53" y="115" type="curve"/>
      <point x="43" y="115" type="line"/>
      <point x="28" y="115"/>
      <point x="16" y="103"/>
      <point x="16" y="88" type="curve"/>
      <point x="16" y="17" type="line"/>
      <point x="16" y="2"/>
      <point x="28" y="-10"/>
      <point x="43" y="-10" type="curve" name="hr01"/>
      <point x="58" y="-10" type="line"/>
      <point x="205" y="-10"/>
      <point x="271" y="75"/>
      <point x="271" y="205" type="curve"/>
      <point x="271" y="575" type="line"/>
    </contour>
    <contour>
      <point x="586" y="299" type="line"/>
      <point x="755" y="299" type="line"/>
      <point x="823" y="299"/>
      <point x="852" y="260"/>
      <point x="852" y="212" type="curve" smooth="yes"/>
      <point x="852" y="164"/>
      <point x="823" y="125"/>
      <point x="755" y="125" type="curve" name="hr02"/>
      <point x="586" y="125" type="line"/>
    </contour>
  </outline>
</glyph>
<glyph name="afii10060" format="1">
  <advance width="761"/>
  <unicode hex="040B"/>
  <outline>
    <contour>
      <point x="582" y="27" type="line" name="hr00" smooth="yes"/>
      <point x="582" y="12"/>
      <point x="594" y="0"/>
      <point x="609" y="0" type="curve" smooth="yes"/>
      <point x="690" y="0" type="line" smooth="yes"/>
      <point x="705" y="0"/>
      <point x="717" y="12"/>
      <point x="717" y="27" type="curve" smooth="yes"/>
      <point x="717" y="254" type="line" smooth="yes"/>
      <point x="717" y="404"/>
      <point x="621" y="500"/>
      <point x="471" y="500" type="curve" smooth="yes"/>
      <point x="312" y="500" type="line"/>
      <point x="312" y="575" type="line"/>
      <point x="451" y="575" type="line" smooth="yes"/>
      <point x="466" y="575"/>
      <point x="478" y="587"/>
      <point x="478" y="602" type="curve" smooth="yes"/>
      <point x="478" y="673" type="line" smooth="yes"/>
      <point x="478" y="688"/>
      <point x="466" y="700"/>
      <point x="451" y="700" type="curve" smooth="yes"/>
      <point x="47" y="700" type="line" smooth="yes"/>
      <point x="32" y="700"/>
      <point x="20" y="688"/>
      <point x="20" y="673" type="curve" smooth="yes"/>
      <point x="20" y="602" type="line" smooth="yes"/>
      <point x="20" y="587"/>
      <point x="32" y="575"/>
      <point x="47" y="575" type="curve" smooth="yes"/>
      <point x="176" y="575" type="line"/>
      <point x="176" y="27" type="line" smooth="yes"/>
      <point x="176" y="12"/>
      <point x="188" y="0"/>
      <point x="203" y="0" type="curve" smooth="yes"/>
      <point x="284" y="0" type="line" smooth="yes"/>
      <point x="299" y="0"/>
      <point x="311" y="12"/>
      <point x="311" y="27" type="curve" smooth="yes"/>
      <point x="311" y="375" type="line"/>
      <point x="456" y="375" type="line" smooth="yes"/>
      <point x="536" y="375"/>
      <point x="582" y="329"/>
      <point x="582" y="249" type="curve" smooth="yes"/>
    </contour>
  </outline>
</glyph>
<glyph name="afii10025" format="1">
  <advance width="643"/>
  <unicode hex="0417"/>
  <outline>
    <contour>
      <point x="35" y="174" type="curve" smooth="yes"/>
      <point x="42" y="66"/>
      <point x="142" y="-10"/>
      <point x="315" y="-10" type="curve" smooth="yes"/>
      <point x="480" y="-10"/>
      <point x="597" y="66"/>
      <point x="597" y="204" type="curve" smooth="yes"/>
      <point x="597" y="270"/>
      <point x="562" y="325"/>
      <point x="514" y="362" type="curve"/>
      <point x="550" y="396"/>
      <point x="577" y="440"/>
      <point x="577" y="501" type="curve" name="hr01" smooth="yes"/>
      <point x="577" y="629"/>
      <point x="477" y="710"/>
      <point x="310" y="710" type="curve" smooth="yes"/>
      <point x="157" y="710"/>
      <point x="54" y="634"/>
      <point x="47" y="526" type="curve" smooth="yes"/>
      <point x="46" y="510"/>
      <point x="59" y="499"/>
      <point x="74" y="499" type="curve" smooth="yes"/>
      <point x="155" y="499" type="line" smooth="yes"/>
      <point x="168" y="499"/>
      <point x="177" y="510"/>
      <point x="185" y="525" type="curve" smooth="yes"/>
      <point x="210" y="571"/>
      <point x="265" y="585"/>
      <point x="310" y="585" type="curve" name="hr02" smooth="yes"/>
      <point x="391" y="585"/>
      <point x="442" y="560"/>
      <point x="442" y="501" type="curve" smooth="yes"/>
      <point x="442" y="445"/>
      <point x="392" y="419"/>
      <point x="309" y="419" type="curve" smooth="yes"/>
      <point x="226" y="419" type="line"/>
      <point x="212" y="418"/>
      <point x="201" y="406"/>
      <point x="201" y="392" type="curve" smooth="yes"/>
      <point x="201" y="321" type="line" smooth="yes"/>
      <point x="201" y="306"/>
      <point x="212" y="295"/>
      <point x="226" y="294" type="curve"/>
      <point x="315" y="294" type="line" smooth="yes"/>
      <point x="396" y="294"/>
      <point x="462" y="270"/>
      <point x="462" y="204" type="curve" name="hr03" smooth="yes"/>
      <point x="462" y="135"/>
      <point x="396" y="115"/>
      <point x="315" y="115" type="curve" smooth="yes"/>
      <point x="250" y="115"/>
      <point x="198" y="129"/>
      <point x="173" y="175" type="curve" smooth="yes"/>
      <point x="165" y="190"/>
      <point x="156" y="201"/>
      <point x="143" y="201" type="curve" name="hr04" smooth="yes"/>
      <point x="62" y="201" type="line" smooth="yes"/>
      <point x="47" y="201"/>
      <point x="34" y="190"/>
    </contour>
  </outline>
</glyph>
<glyph name="afii10037" format="1">
  <advance width="636"/>
  <unicode hex="0423"/>
  <outline>
    <contour>
      <point x="254" y="227" type="line" name="hr00"/>
      <point x="216" y="159"/>
      <point x="190" y="125"/>
      <point x="147" y="125" type="curve" smooth="yes"/>
      <point x="90" y="125" type="line" smooth="yes"/>
      <point x="75" y="125"/>
      <point x="63" y="113"/>
      <point x="63" y="98" type="curve" smooth="yes"/>
      <point x="63" y="27" type="line" smooth="yes"/>
      <point x="63" y="12"/>
      <point x="75" y="0"/>
      <point x="90" y="0" type="curve" smooth="yes"/>
      <point x="165" y="0" type="line" smooth="yes"/>
      <point x="287" y="0"/>
      <point x="330" y="95"/>
      <point x="388" y="204" type="curve" smooth="yes"/>
      <point x="632" y="664" type="line" smooth="yes"/>
      <point x="633" y="666"/>
      <point x="634" y="670"/>
      <point x="634" y="673" type="curve" smooth="yes"/>
      <point x="634" y="688"/>
      <point x="622" y="700"/>
      <point x="607" y="700" type="curve" smooth="yes"/>
      <point x="532" y="700" type="line" smooth="yes"/>
      <point x="505" y="700"/>
      <point x="497" y="688"/>
      <point x="490" y="675" type="curve" smooth="yes"/>
      <point x="327" y="366" type="line"/>
      <point x="164" y="675" type="line" smooth="yes"/>
      <point x="157" y="688"/>
      <point x="149" y="700"/>
      <point x="122" y="700" type="curve" smooth="yes"/>
      <point x="47" y="700" type="line" smooth="yes"/>
      <point x="32" y="700"/>
      <point x="20" y="685"/>
      <point x="20" y="673" type="curve" smooth="yes"/>
      <point x="20" y="670"/>
      <point x="21" y="666"/>
      <point x="22" y="664" type="curve" smooth="yes"/>
    </contour>
  </outline>
</glyph>
<glyph name="afii10041" format="1">
  <advance width="658"/>
  <unicode hex="0427"/>
  <outline>
    <contour>
      <point x="174" y="673" type="line" name="hr00" smooth="yes"/>
      <point x="174" y="688"/>
      <point x="162" y="700"/>
      <point x="147" y="700" type="curve" smooth="yes"/>
      <point x="66" y="700" type="line" smooth="yes"/>
      <point x="51" y="700"/>
      <point x="39" y="688"/>
      <point x="39" y="673" type="curve" smooth="yes"/>
      <point x="39" y="498" type="line" smooth="yes"/>
      <point x="39" y="348"/>
      <point x="135" y="252"/>
      <point x="285" y="252" type="curve" smooth="yes"/>
      <point x="444" y="252" type="line"/>
      <point x="444" y="27" type="line" smooth="yes"/>
      <point x="444" y="12"/>
      <point x="456" y="0"/>
      <point x="471" y="0" type="curve" smooth="yes"/>
      <point x="553" y="0" type="line" smooth="yes"/>
      <point x="568" y="0"/>
      <point x="580" y="12"/>
      <point x="580" y="27" type="curve" smooth="yes"/>
      <point x="580" y="673" type="line" smooth="yes"/>
      <point x="580" y="688"/>
      <point x="568" y="700"/>
      <point x="553" y="700" type="curve" smooth="yes"/>
      <point x="472" y="700" type="line" smooth="yes"/>
      <point x="457" y="700"/>
      <point x="445" y="688"/>
      <point x="445" y="673" type="curve" smooth="yes"/>
      <point x="445" y="377" type="line"/>
      <point x="300" y="377" type="line" smooth="yes"/>
      <point x="220" y="377"/>
      <point x="174" y="423"/>
      <point x="174" y="503" type="curve" smooth="yes"/>
    </contour>
  </outline>
</glyph>
<glyph name="afii10046" format="1">
  <advance width="643"/>
  <unicode hex="042C"/>
  <outline>
    <contour>
      <point x="78" y="673" type="curve" name="hr00"/>
      <point x="78" y="27" type="line" smooth="yes"/>
      <point x="78" y="12"/>
      <point x="90" y="0"/>
      <point x="105" y="0" type="curve" smooth="yes"/>
      <point x="402" y="0" type="line" smooth="yes"/>
      <point x="539" y="0"/>
      <point x="614" y="95"/>
      <point x="614" y="212" type="curve" smooth="yes"/>
      <point x="614" y="339"/>
      <point x="529" y="424"/>
      <point x="402" y="424" type="curve" smooth="yes"/>
      <point x="213" y="424" type="line"/>
      <point x="213" y="673" type="line" smooth="yes"/>
      <point x="213" y="688"/>
      <point x="201" y="700"/>
      <point x="186" y="700" type="curve" smooth="yes"/>
      <point x="105" y="700" type="line" smooth="yes"/>
      <point x="90" y="700"/>
      <point x="78" y="688"/>
    </contour>
    <contour>
      <point x="213" y="299" type="line"/>
      <point x="382" y="299" type="line" smooth="yes"/>
      <point x="450" y="299"/>
      <point x="479" y="260"/>
      <point x="479" y="212" type="curve" smooth="yes"/>
      <point x="479" y="164"/>
      <point x="450" y="125"/>
      <point x="382" y="125" type="curve" smooth="yes"/>
      <point x="213" y="125" type="line"/>
    </contour>
  </outline>
</glyph>
<glyph name="afii10078" format="1">
  <advance width="696"/>
  <unicode hex="043C"/>
  <outline>
    <contour>
      <point x="206" y="500" type="line" name="hr00" smooth="yes"/>
      <point x="202" y="508"/>
      <point x="194" y="520"/>
      <point x="167" y="520" type="curve" smooth="yes"/>
      <point x="96" y="520" type="line" smooth="yes"/>
      <point x="81" y="520"/>
      <point x="69" y="508"/>
      <point x="69" y="493" type="curve" smooth="yes"/>
      <point x="69" y="27" type="line" smooth="yes"/>
      <point x="69" y="12"/>
      <point x="81" y="0"/>
      <point x="96" y="0" type="curve" smooth="yes"/>
      <point x="172" y="0" type="line" smooth="yes"/>
      <point x="187" y="0"/>
      <point x="199" y="12"/>
      <point x="199" y="27" type="curve" smooth="yes"/>
      <point x="199" y="278" type="line"/>
      <point x="294" y="110" type="line" smooth="yes"/>
      <point x="300" y="99"/>
      <point x="310" y="85"/>
      <point x="329" y="85" type="curve" smooth="yes"/>
      <point x="367" y="85" type="line" smooth="yes"/>
      <point x="386" y="85"/>
      <point x="396" y="99"/>
      <point x="402" y="110" type="curve" smooth="yes"/>
      <point x="497" y="278" type="line"/>
      <point x="497" y="27" type="line" smooth="yes"/>
      <point x="497" y="12"/>
      <point x="509" y="0"/>
      <point x="524" y="0" type="curve" smooth="yes"/>
      <point x="600" y="0" type="line" smooth="yes"/>
      <point x="615" y="0"/>
      <point x="627" y="12"/>
      <point x="627" y="27" type="curve" smooth="yes"/>
      <point x="627" y="493" type="line" smooth="yes"/>
      <point x="627" y="508"/>
      <point x="615" y="520"/>
      <point x="600" y="520" type="curve" smooth="yes"/>
      <point x="529" y="520" type="line" smooth="yes"/>
      <point x="502" y="520"/>
      <point x="494" y="508"/>
      <point x="490" y="500" type="curve" smooth="yes"/>
      <point x="348" y="243" type="line"/>
    </contour>
  </outline>
</glyph>
<glyph name="afii10086" format="1">
  <advance width="910"/>
  <unicode hex="0444"/>
  <outline>
    <contour>
      <point x="254" y="-10" type="curve" name="hr00" smooth="yes"/>
      <point x="327" y="-10"/>
      <point x="368" y="26"/>
      <point x="390" y="50" type="curve"/>
      <point x="390" y="-163" type="line" smooth="yes"/>
      <point x="390" y="-178"/>
      <point x="402" y="-190"/>
      <point x="417" y="-190" type="curve" smooth="yes"/>
      <point x="493" y="-190" type="line" smooth="yes"/>
      <point x="508" y="-190"/>
      <point x="520" y="-178"/>
      <point x="520" y="-163" type="curve" smooth="yes"/>
      <point x="520" y="50" type="line"/>
      <point x="542" y="26"/>
      <point x="583" y="-10"/>
      <point x="656" y="-10" type="curve" smooth="yes"/>
      <point x="790" y="-10"/>
      <point x="858" y="102"/>
      <point x="864" y="225" type="curve" smooth="yes"/>
      <point x="865" y="245"/>
      <point x="865" y="275"/>
      <point x="864" y="295" type="curve" smooth="yes"/>
      <point x="858" y="418"/>
      <point x="790" y="530"/>
      <point x="656" y="530" type="curve" smooth="yes"/>
      <point x="583" y="530"/>
      <point x="542" y="495"/>
      <point x="520" y="470" type="curve"/>
      <point x="520" y="683" type="line" smooth="yes"/>
      <point x="520" y="698"/>
      <point x="508" y="710"/>
      <point x="493" y="710" type="curve" smooth="yes"/>
      <point x="417" y="710" type="line" smooth="yes"/>
      <point x="402" y="710"/>
      <point x="390" y="698"/>
      <point x="390" y="683" type="curve" smooth="yes"/>
      <point x="390" y="470" type="line"/>
      <point x="368" y="495"/>
      <point x="327" y="530"/>
      <point x="254" y="530" type="curve" smooth="yes"/>
      <point x="120" y="530"/>
      <point x="52" y="418"/>
      <point x="46" y="295" type="curve" smooth="yes"/>
      <point x="45" y="275"/>
      <point x="45" y="245"/>
      <point x="46" y="225" type="curve" smooth="yes"/>
      <point x="52" y="102"/>
      <point x="120" y="-10"/>
    </contour>
    <contour>
      <point x="734" y="232" type="curve" smooth="yes"/>
      <point x="726" y="146"/>
      <point x="688" y="110"/>
      <point x="626" y="110" type="curve" smooth="yes"/>
      <point x="564" y="110"/>
      <point x="527" y="153"/>
      <point x="520" y="222" type="curve" smooth="yes"/>
      <point x="518" y="242"/>
      <point x="518" y="278"/>
      <point x="520" y="298" type="curve" smooth="yes"/>
      <point x="527" y="370"/>
      <point x="564" y="410"/>
      <point x="626" y="410" type="curve" smooth="yes"/>
      <point x="688" y="410"/>
      <point x="726" y="374"/>
      <point x="734" y="288" type="curve" smooth="yes"/>
      <point x="736" y="268"/>
      <point x="736" y="252"/>
    </contour>
    <contour>
      <point x="176" y="232" type="curve" smooth="yes"/>
      <point x="174" y="252"/>
      <point x="174" y="268"/>
      <point x="176" y="288" type="curve" smooth="yes"/>
      <point x="184" y="374"/>
      <point x="222" y="410"/>
      <point x="284" y="410" type="curve" smooth="yes"/>
      <point x="346" y="410"/>
      <point x="383" y="370"/>
      <point x="390" y="298" type="curve" smooth="yes"/>
      <point x="392" y="278"/>
      <point x="392" y="242"/>
      <point x="390" y="222" type="curve" smooth="yes"/>
      <point x="383" y="153"/>
      <point x="346" y="110"/>
      <point x="284" y="110" type="curve" smooth="yes"/>
      <point x="222" y="110"/>
      <point x="184" y="146"/>
    </contour>
  </outline>
</glyph>
<glyph name="afii10092" format="1">
  <advance width="630"/>
  <unicode hex="044A"/>
  <outline>
    <contour>
      <point x="600" y="202" type="curve" smooth="yes"/>
      <point x="600" y="323"/>
      <point x="509" y="404"/>
      <point x="378" y="404" type="curve" smooth="yes"/>
      <point x="275" y="404" type="line"/>
      <point x="275" y="493" type="line" smooth="yes"/>
      <point x="275" y="508"/>
      <point x="263" y="520"/>
      <point x="248" y="520" type="curve" name="hr01" smooth="yes"/>
      <point x="46" y="520" type="line" smooth="yes"/>
      <point x="31" y="520"/>
      <point x="19" y="508"/>
      <point x="19" y="493" type="curve" smooth="yes"/>
      <point x="19" y="427" type="line" smooth="yes"/>
      <point x="19" y="412"/>
      <point x="31" y="400"/>
      <point x="46" y="400" type="curve" smooth="yes"/>
      <point x="145" y="400" type="line"/>
      <point x="145" y="27" type="line" smooth="yes"/>
      <point x="145" y="12"/>
      <point x="157" y="0"/>
      <point x="172" y="0" type="curve" smooth="yes"/>
      <point x="378" y="0" type="line" smooth="yes"/>
      <point x="509" y="0"/>
      <point x="600" y="81"/>
    </contour>
    <contour>
      <point x="275" y="284" type="line" name="hr02"/>
      <point x="361" y="284" type="line" smooth="yes"/>
      <point x="428" y="284"/>
      <point x="473" y="269"/>
      <point x="473" y="202" type="curve" smooth="yes"/>
      <point x="473" y="135"/>
      <point x="428" y="120"/>
      <point x="361" y="120" type="curve" smooth="yes"/>
      <point x="275" y="120" type="line"/>
    </contour>
  </outline>
</glyph>
<glyph name="afii10094" format="1">
  <advance width="554"/>
  <unicode hex="044C"/>
  <outline>
    <contour>
      <point x="524" y="202" type="curve" name="hr00" smooth="yes"/>
      <point x="524" y="323"/>
      <point x="433" y="404"/>
      <point x="302" y="404" type="curve" smooth="yes"/>
      <point x="199" y="404" type="line"/>
      <point x="199" y="493" type="line" smooth="yes"/>
      <point x="199" y="508"/>
      <point x="187" y="520"/>
      <point x="172" y="520" type="curve" smooth="yes"/>
      <point x="96" y="520" type="line" smooth="yes"/>
      <point x="81" y="520"/>
      <point x="69" y="508"/>
      <point x="69" y="493" type="curve" smooth="yes"/>
      <point x="69" y="27" type="line" smooth="yes"/>
      <point x="69" y="12"/>
      <point x="81" y="0"/>
      <point x="96" y="0" type="curve" smooth="yes"/>
      <point x="302" y="0" type="line" smooth="yes"/>
      <point x="433" y="0"/>
      <point x="524" y="81"/>
    </contour>
    <contour>
      <point x="199" y="284" type="line"/>
      <point x="285" y="284" type="line" smooth="yes"/>
      <point x="352" y="284"/>
      <point x="397" y="269"/>
      <point x="397" y="202" type="curve" smooth="yes"/>
      <point x="397" y="135"/>
      <point x="352" y="120"/>
      <point x="285" y="120" type="curve" smooth="yes"/>
      <point x="199" y="120" type="line"/>
    </contour>
  </outline>
</glyph>
<glyph name="holamhebrew" format="1">
  <advance width="0"/>
  <unicode hex="05B9"/>
  <outline>
    <contour>
      <point x="23" y="533" type="line" smooth="yes"/>
      <point x="37" y="533"/>
      <point x="46" y="542"/>
      <point x="46" y="555" type="curve" smooth="yes"/>
      <point x="46" y="595" type="line" smooth="yes"/>
      <point x="46" y="608"/>
      <point x="37" y="617"/>
      <point x="23" y="617" type="curve" smooth="yes"/>
      <point x="-20" y="617" type="line" smooth="yes"/>
      <point x="-33" y="617"/>
      <point x="-42" y="608"/>
      <point x="-42" y="595" type="curve" smooth="yes"/>
      <point x="-42" y="555" type="line" smooth="yes"/>
      <point x="-42" y="542"/>
      <point x="-33" y="533"/>
      <point x="-20" y="533" type="curve" smooth="yes"/>
    </contour>
    <contour>
      <point x="52" y="415" type="move" name="_topleft"/>
    </contour>
  </outline>
</glyph>
<glyph name="shindothebrew" format="1">
  <advance width="0"/>
  <unicode hex="05C1"/>
  <outline>
    <contour>
      <point x="-62" y="516" type="line" smooth="yes"/>
      <point x="-49" y="516"/>
      <point x="-40" y="525"/>
      <point x="-40" y="538" type="curve" smooth="yes"/>
      <point x="-40" y="578" type="line" smooth="yes"/>
      <point x="-40" y="591"/>
      <point x="-49" y="600"/>
      <point x="-62" y="600" type="curve" smooth="yes"/>
      <point x="-102" y="600" type="line" smooth="yes"/>
      <point x="-115" y="600"/>
      <point x="-124" y="591"/>
      <point x="-124" y="578" type="curve" smooth="yes"/>
      <point x="-124" y="538" type="line" smooth="yes"/>
      <point x="-124" y="525"/>
      <point x="-115" y="516"/>
      <point x="-102" y="516" type="curve" smooth="yes"/>
    </contour>
    <contour>
      <point x="22" y="415" type="move" name="_topright"/>
    </contour>
  </outline>
</glyph>
<glyph name="alefhebrew" format="1">
  <advance width="612"/>
  <unicode hex="05D0"/>
  <outline>
    <contour>
      <point x="542" y="0" type="line" smooth="yes"/>
      <point x="553" y="0"/>
      <point x="562" y="9"/>
      <point x="562" y="21" type="curve" smooth="yes"/>
      <point x="562" y="25"/>
      <point x="562" y="30"/>
      <point x="556" y="37" type="curve" smooth="yes"/>
      <point x="191" y="552" type="line" smooth="yes"/>
      <point x="186" y="559"/>
      <point x="177" y="571"/>
      <point x="159" y="571" type="curve" smooth="yes"/>
      <point x="78" y="571" type="line" smooth="yes"/>
      <point x="66" y="571"/>
      <point x="57" y="562"/>
      <point x="57" y="550" type="curve" smooth="yes"/>
      <point x="57" y="545"/>
      <point x="58" y="541"/>
      <point x="63" y="534" type="curve" smooth="yes"/>
      <point x="426" y="18" type="line" smooth="yes"/>
      <point x="431" y="12"/>
      <point x="439" y="0"/>
      <point x="458" y="0" type="curve" smooth="yes"/>
    </contour>
    <contour>
      <point x="142" y="0" type="line" smooth="yes"/>
      <point x="156" y="0"/>
      <point x="166" y="10"/>
      <point x="166" y="25" type="curve" smooth="yes"/>
      <point x="166" y="161" type="line" smooth="yes"/>
      <point x="166" y="209"/>
      <point x="173" y="271"/>
      <point x="235" y="313" type="curve"/>
      <point x="172" y="403" type="line"/>
      <point x="71" y="337"/>
      <point x="50" y="264"/>
      <point x="50" y="162" type="curve" smooth="yes"/>
      <point x="50" y="25" type="line" smooth="yes"/>
      <point x="50" y="11"/>
      <point x="60" y="0"/>
      <point x="74" y="0" type="curve" smooth="yes"/>
    </contour>
    <contour>
      <point x="536" y="253"/>
      <point x="557" y="328"/>
      <point x="557" y="411" type="curve" smooth="yes"/>
      <point x="557" y="546" type="line" smooth="yes"/>
      <point x="557" y="560"/>
      <point x="546" y="571"/>
      <point x="532" y="571" type="curve" smooth="yes"/>
      <point x="460" y="571" type="line" smooth="yes"/>
      <point x="447" y="571"/>
      <point x="436" y="561"/>
      <point x="436" y="546" type="curve" smooth="yes"/>
      <point x="436" y="416" type="line" smooth="yes"/>
      <point x="436" y="366"/>
      <point x="436" y="318"/>
      <point x="355" y="279" type="curve"/>
      <point x="415" y="188" type="line"/>
    </contour>
    <contour>
      <point x="257" y="93" type="move" name="center"/>
    </contour>
    <contour>
      <point x="300" y="520" type="move" name="top"/>
    </contour>
    <contour>
      <point x="24" y="0" type="move" name="bottomleft"/>
    </contour>
    <contour>
      <point x="24" y="520" type="move" name="topleft"/>
    </contour>
    <contour>
      <point x="300" y="0" type="move" name="bottom"/>
    </contour>
  </outline>
</glyph>
<glyph name="hehebrew" format="1">
  <advance width="633"/>
  <unicode hex="05D4"/>
  <outline>
    <contour>
      <point x="547" y="0" type="line" smooth="yes"/>
      <point x="561" y="0"/>
      <point x="571" y="10"/>
      <point x="571" y="24" type="curve" smooth="yes"/>
      <point x="571" y="323" type="line" smooth="yes"/>
      <point x="571" y="490"/>
      <point x="481" y="571"/>
      <point x="305" y="571" type="curve" smooth="yes"/>
      <point x="93" y="571" type="line" smooth="yes"/>
      <point x="79" y="571"/>
      <point x="69" y="561"/>
      <point x="69" y="547" type="curve" smooth="yes"/>
      <point x="69" y="488" type="line" smooth="yes"/>
      <point x="69" y="475"/>
      <point x="79" y="464"/>
      <point x="93" y="464" type="curve" smooth="yes"/>
      <point x="300" y="464" type="line" smooth="yes"/>
      <point x="399" y="464"/>
      <point x="442" y="412"/>
      <point x="442" y="322" type="curve" smooth="yes"/>
      <point x="442" y="24" type="line" smooth="yes"/>
      <point x="442" y="10"/>
      <point x="453" y="0"/>
      <point x="466" y="0" type="curve" smooth="yes"/>
    </contour>
    <contour>
      <point x="173" y="0" type="line" smooth="yes"/>
      <point x="187" y="0"/>
      <point x="198" y="10"/>
      <point x="198" y="24" type="curve"/>
      <point x="198" y="338" type="line" smooth="yes"/>
      <point x="198" y="352"/>
      <point x="187" y="362"/>
      <point x="173" y="362" type="curve" smooth="yes"/>
      <point x="93" y="362" type="line" smooth="yes"/>
      <point x="79" y="362"/>
      <point x="69" y="352"/>
      <point x="69" y="338" type="curve" smooth="yes"/>
      <point x="69" y="24" type="line" smooth="yes"/>
      <point x="69" y="10"/>
      <point x="79" y="0"/>
      <point x="93" y="0" type="curve" smooth="yes"/>
    </contour>
    <contour>
      <point x="317" y="260" type="move" name="center"/>
    </contour>
    <contour>
      <point x="317" y="520" type="move" name="top"/>
    </contour>
    <contour>
      <point x="20" y="0" type="move" name="bottomleft"/>
    </contour>
    <contour>
      <point x="20" y="520" type="move" name="topleft"/>
    </contour>
    <contour>
      <point x="317" y="0" type="move" name="bottom"/>
    </contour>
  </outline>
</glyph>
<glyph name="vavhebrew" format="1">
  <advance width="270"/>
  <unicode hex="05D5"/>
  <outline>
    <contour>
      <point x="178" y="0" type="line" smooth="yes"/>
      <point x="191" y="0"/>
      <point x="202" y="10"/>
      <point x="202" y="24" type="curve"/>
      <point x="202" y="547" type="line" smooth="yes"/>
      <point x="202" y="561"/>
      <point x="191" y="571"/>
      <point x="178" y="571" type="curve" smooth="yes"/>
      <point x="93" y="571" type="line" smooth="yes"/>
      <point x="79" y="571"/>
      <point x="69" y="561"/>
      <point x="69" y="547" type="curve" smooth="yes"/>
      <point x="69" y="24" type="line" smooth="yes"/>
      <point x="69" y="10"/>
      <point x="79" y="0"/>
      <point x="93" y="0" type="curve" smooth="yes"/>
    </contour>
    <contour>
      <point x="-7" y="260" type="move" name="center"/>
    </contour>
    <contour>
      <point x="135" y="520" type="move" name="top"/>
    </contour>
    <contour>
      <point x="20" y="0" type="move" name="bottomleft"/>
    </contour>
    <contour>
      <point x="187" y="520" type="move" name="topleft"/>
    </contour>
    <contour>
      <point x="134" y="0" type="move" name="bottom"/>
    </contour>
  </outline>
</glyph>
<glyph name="finalkafhebrew" format="1">
  <advance width="559"/>
  <unicode hex="05DA"/>
  <outline>
    <contour>
      <point x="368" y="-100" type="line" smooth="yes"/>
      <point x="368" y="-114"/>
      <point x="379" y="-124"/>
      <point x="392" y="-124" type="curve" smooth="yes"/>
      <point x="473" y="-124" type="line" smooth="yes"/>
      <point x="487" y="-124"/>
      <point x="497" y="-114"/>
      <point x="497" y="-100" type="curve" smooth="yes"/>
      <point x="497" y="327" type="line" smooth="yes"/>
      <point x="497" y="500"/>
      <point x="407" y="571"/>
      <point x="231" y="571" type="curve" smooth="yes"/>
      <point x="73" y="571" type="line"/>
      <point x="59" y="571"/>
      <point x="49" y="561"/>
      <point x="49" y="547" type="curve" smooth="yes"/>
      <point x="49" y="488" type="line" smooth="yes"/>
      <point x="49" y="475"/>
      <point x="59" y="464"/>
      <point x="73" y="464" type="curve" smooth="yes"/>
      <point x="226" y="464" type="line" smooth="yes"/>
      <point x="325" y="464"/>
      <point x="368" y="412"/>
      <point x="368" y="322" type="curve" smooth="yes"/>
    </contour>
    <contour>
      <point x="244" y="260" type="move" name="center"/>
    </contour>
    <contour>
      <point x="294" y="520" type="move" name="top"/>
    </contour>
    <contour>
      <point x="56" y="0" type="move" name="bottomleft"/>
    </contour>
    <contour>
      <point x="56" y="520" type="move" name="topleft"/>
    </contour>
    <contour>
      <point x="196" y="238" type="move" name="bottom"/>
    </contour>
  </outline>
</glyph>
<glyph name="kafhebrew" format="1">
  <advance width="552"/>
  <unicode hex="05DB"/>
  <outline>
    <contour>
      <point x="239" y="0" type="line" smooth="yes"/>
      <point x="424" y="0"/>
      <point x="499" y="97"/>
      <point x="505" y="252" type="curve" smooth="yes"/>
      <point x="506" y="278"/>
      <point x="506" y="293"/>
      <point x="505" y="319" type="curve" smooth="yes"/>
      <point x="499" y="474"/>
      <point x="424" y="571"/>
      <point x="239" y="571" type="curve" smooth="yes"/>
      <point x="90" y="571" type="line" smooth="yes"/>
      <point x="76" y="571"/>
      <point x="66" y="561"/>
      <point x="66" y="547" type="curve" smooth="yes"/>
      <point x="66" y="484" type="line" smooth="yes"/>
      <point x="66" y="470"/>
      <point x="76" y="460"/>
      <point x="90" y="460" type="curve" smooth="yes"/>
      <point x="234" y="460" type="line" smooth="yes"/>
      <point x="333" y="460"/>
      <point x="377" y="408"/>
      <point x="381" y="317" type="curve" smooth="yes"/>
      <point x="382" y="292"/>
      <point x="382" y="279"/>
      <point x="381" y="254" type="curve" smooth="yes"/>
      <point x="376" y="163"/>
      <point x="333" y="111"/>
      <point x="234" y="111" type="curve" smooth="yes"/>
      <point x="90" y="111" type="line" smooth="yes"/>
      <point x="76" y="111"/>
      <point x="66" y="101"/>
      <point x="66" y="87" type="curve" smooth="yes"/>
      <point x="66" y="24" type="line" smooth="yes"/>
      <point x="66" y="10"/>
      <point x="76" y="0"/>
      <point x="90" y="0" type="curve" smooth="yes"/>
    </contour>
    <contour>
      <point x="222" y="260" type="move" name="center"/>
    </contour>
    <contour>
      <point x="262" y="520" type="move" name="top"/>
    </contour>
    <contour>
      <point x="43" y="0" type="move" name="bottomleft"/>
    </contour>
    <contour>
      <point x="43" y="520" type="move" name="topleft"/>
    </contour>
    <contour>
      <point x="257" y="0" type="move" name="bottom"/>
    </contour>
  </outline>
</glyph>
<glyph name="finalnunhebrew" format="1">
  <advance width="266"/>
  <unicode hex="05DF"/>
  <outline>
    <contour>
      <point x="173" y="-124" type="line" smooth="yes"/>
      <point x="187" y="-124"/>
      <point x="198" y="-114"/>
      <point x="198" y="-100" type="curve"/>
      <point x="198" y="547" type="line" smooth="yes"/>
      <point x="198" y="561"/>
      <point x="187" y="571"/>
      <point x="173" y="571" type="curve" smooth="yes"/>
      <point x="93" y="571" type="line" smooth="yes"/>
      <point x="79" y="571"/>
      <point x="69" y="561"/>
      <point x="69" y="547" type="curve" smooth="yes"/>
      <point x="69" y="-100" type="line" smooth="yes"/>
      <point x="69" y="-114"/>
      <point x="79" y="-124"/>
      <point x="93" y="-124" type="curve" smooth="yes"/>
    </contour>
    <contour>
      <point x="133" y="260" type="move" name="center"/>
    </contour>
    <contour>
      <point x="133" y="520" type="move" name="top"/>
    </contour>
    <contour>
      <point x="20" y="0" type="move" name="bottomleft"/>
    </contour>
    <contour>
      <point x="20" y="520" type="move" name="topleft"/>
    </contour>
    <contour>
      <point x="133" y="0" type="move" name="bottom"/>
    </contour>
  </outline>
</glyph>
<glyph name="nunhebrew" format="1">
  <advance width="425"/>
  <unicode hex="05E0"/>
  <outline>
    <contour>
      <point x="344" y="0" type="line" smooth="yes"/>
      <point x="357" y="0"/>
      <point x="368" y="7"/>
      <point x="368" y="21" type="curve" smooth="yes"/>
      <point x="368" y="107" type="line"/>
      <point x="65" y="107" type="line" smooth="yes"/>
      <point x="51" y="107"/>
      <point x="41" y="97"/>
      <point x="41" y="83" type="curve" smooth="yes"/>
      <point x="41" y="24" type="line" smooth="yes"/>
      <point x="41" y="10"/>
      <point x="51" y="0"/>
      <point x="65" y="0" type="curve" smooth="yes"/>
    </contour>
    <contour>
      <point x="359" y="0" type="line" smooth="yes"/>
      <point x="373" y="0"/>
      <point x="384" y="10"/>
      <point x="383" y="24" type="curve" smooth="yes"/>
      <point x="367" y="333" type="line" smooth="yes"/>
      <point x="359" y="490"/>
      <point x="311" y="575"/>
      <point x="148" y="575" type="curve" smooth="yes"/>
      <point x="100" y="575" type="line" smooth="yes"/>
      <point x="86" y="575"/>
      <point x="76" y="565"/>
      <point x="76" y="551" type="curve" smooth="yes"/>
      <point x="76" y="493" type="line" smooth="yes"/>
      <point x="76" y="480"/>
      <point x="86" y="469"/>
      <point x="100" y="469" type="curve" smooth="yes"/>
      <point x="146" y="469" type="line" smooth="yes"/>
      <point x="221" y="469"/>
      <point x="229" y="418"/>
      <point x="234" y="332" type="curve" smooth="yes"/>
      <point x="250" y="24" type="line"/>
      <point x="252" y="10"/>
      <point x="261" y="0"/>
      <point x="274" y="0" type="curve" smooth="yes"/>
    </contour>
    <contour>
      <point x="150" y="260" type="move" name="center"/>
    </contour>
    <contour>
      <point x="210" y="520" type="move" name="top"/>
    </contour>
    <contour>
      <point x="20" y="0" type="move" name="bottomleft"/>
    </contour>
    <contour>
      <point x="20" y="520" type="move" name="topleft"/>
    </contour>
    <contour>
      <point x="213" y="0" type="move" name="bottom"/>
    </contour>
  </outline>
</glyph>
<glyph name="tsadihebrew" format="1">
  <advance width="560"/>
  <unicode hex="05E6"/>
  <outline>
    <contour>
      <point x="464" y="0" type="line" smooth="yes"/>
      <point x="478" y="0"/>
      <point x="488" y="10"/>
      <point x="488" y="24" type="curve" smooth="yes"/>
      <point x="488" y="80" type="line" smooth="yes"/>
      <point x="488" y="94"/>
      <point x="482" y="103"/>
      <point x="476" y="112" type="curve" smooth="yes"/>
      <point x="161" y="554" type="line" smooth="yes"/>
      <point x="157" y="561"/>
      <point x="148" y="571"/>
      <point x="132" y="571" type="curve" smooth="yes"/>
      <point x="47" y="571" type="line" smooth="yes"/>
      <point x="36" y="571"/>
      <point x="26" y="562"/>
      <point x="26" y="551" type="curve" smooth="yes"/>
      <point x="26" y="546"/>
      <point x="28" y="540"/>
      <point x="33" y="534" type="curve" smooth="yes"/>
      <point x="335" y="109" type="line"/>
      <point x="81" y="109" type="line" smooth="yes"/>
      <point x="67" y="109"/>
      <point x="57" y="99"/>
      <point x="57" y="85" type="curve" smooth="yes"/>
      <point x="57" y="24" type="line" smooth="yes"/>
      <point x="57" y="10"/>
      <point x="67" y="0"/>
      <point x="81" y="0" type="curve" smooth="yes"/>
    </contour>
    <contour>
      <point x="460" y="274"/>
      <point x="507" y="352"/>
      <point x="507" y="454" type="curve" smooth="yes"/>
      <point x="507" y="546" type="line" smooth="yes"/>
      <point x="507" y="560"/>
      <point x="497" y="571"/>
      <point x="483" y="571" type="curve" smooth="yes"/>
      <point x="411" y="571" type="line" smooth="yes"/>
      <point x="397" y="571"/>
      <point x="387" y="561"/>
      <point x="387" y="546" type="curve" smooth="yes"/>
      <point x="387" y="475" type="line" smooth="yes"/>
      <point x="387" y="402"/>
      <point x="364" y="347"/>
      <point x="306" y="321" type="curve"/>
      <point x="369" y="232" type="line"/>
    </contour>
    <contour>
      <point x="134" y="217" type="move" name="center"/>
    </contour>
    <contour>
      <point x="276" y="520" type="move" name="top"/>
    </contour>
    <contour>
      <point x="20" y="0" type="move" name="bottomleft"/>
    </contour>
    <contour>
      <point x="20" y="520" type="move" name="topleft"/>
    </contour>
    <contour>
      <point x="276" y="0" type="move" name="bottom"/>
    </contour>
  </outline>
</glyph>
<glyph name="tavhebrew" format="1">
  <advance width="686"/>
  <unicode hex="05EA"/>
  <outline>
    <contour>
      <point x="352" y="464" type="line" smooth="yes"/>
      <point x="451" y="464"/>
      <point x="495" y="412"/>
      <point x="495" y="322" type="curve" smooth="yes"/>
      <point x="495" y="24" type="line" smooth="yes"/>
      <point x="495" y="10"/>
      <point x="505" y="0"/>
      <point x="519" y="0" type="curve" smooth="yes"/>
      <point x="599" y="0" type="line" smooth="yes"/>
      <point x="613" y="0"/>
      <point x="623" y="10"/>
      <point x="623" y="24" type="curve" smooth="yes"/>
      <point x="623" y="327" type="line" smooth="yes"/>
      <point x="623" y="492"/>
      <point x="534" y="571"/>
      <point x="358" y="571" type="curve" smooth="yes"/>
      <point x="111" y="571" type="line" smooth="yes"/>
      <point x="97" y="571"/>
      <point x="87" y="561"/>
      <point x="87" y="547" type="curve" smooth="yes"/>
      <point x="87" y="488" type="line" smooth="yes"/>
      <point x="87" y="475"/>
      <point x="97" y="464"/>
      <point x="111" y="464" type="curve" smooth="yes"/>
    </contour>
    <contour>
      <point x="191" y="523"/>
      <point x="181" y="510"/>
      <point x="176" y="494" type="curve" smooth="yes"/>
      <point x="154" y="416"/>
      <point x="150" y="362"/>
      <point x="151" y="289" type="curve"/>
      <point x="151" y="103" type="line"/>
      <point x="72" y="104" type="line" smooth="yes"/>
      <point x="58" y="104"/>
      <point x="48" y="94"/>
      <point x="48" y="80" type="curve" smooth="yes"/>
      <point x="48" y="25" type="line" smooth="yes"/>
      <point x="48" y="11"/>
      <point x="58" y="1"/>
      <point x="72" y="1" type="curve" smooth="yes"/>
      <point x="248" y="0" type="line" smooth="yes"/>
      <point x="262" y="0"/>
      <point x="272" y="10"/>
      <point x="272" y="24" type="curve"/>
      <point x="267" y="292" type="line"/>
      <point x="266" y="370"/>
      <point x="273" y="420"/>
      <point x="291" y="494" type="curve" smooth="yes"/>
      <point x="295" y="509"/>
      <point x="283" y="523"/>
      <point x="255" y="523" type="curve"/>
      <point x="219" y="523" type="line"/>
    </contour>
    <contour>
      <point x="382" y="260" type="move" name="center"/>
    </contour>
    <contour>
      <point x="366" y="520" type="move" name="top"/>
    </contour>
    <contour>
      <point x="20" y="0" type="move" name="bottomleft"/>
    </contour>
    <contour>
      <point x="20" y="520" type="move" name="topleft"/>
    </contour>
    <contour>
      <point x="383" y="0" type="move" name="bottom"/>
    </contour>
  </outline>
</glyph>
<glyph name="endash" format="1">
  <advance width="575"/>
  <unicode hex="2013"/>
  <outline>
    <contour>
      <point x="485" y="240" type="line" name="hr00" smooth="yes"/>
      <point x="500" y="240"/>
      <point x="512" y="252"/>
      <point x="512" y="267" type="curve" smooth="yes"/>
      <point x="512" y="333" type="line" smooth="yes"/>
      <point x="512" y="348"/>
      <point x="500" y="360"/>
      <point x="485" y="360" type="curve" smooth="yes"/>
      <point x="90" y="360" type="line" smooth="yes"/>
      <point x="75" y="360"/>
      <point x="63" y="348"/>
      <point x="63" y="333" type="curve" smooth="yes"/>
      <point x="63" y="267" type="line" smooth="yes"/>
      <point x="63" y="252"/>
      <point x="75" y="240"/>
      <point x="90" y="240" type="curve" smooth="yes"/>
    </contour>
  </outline>
</glyph>
<glyph name="quotedblleft" format="1">
  <advance width="458"/>
  <unicode hex="201C"/>
  <outline>
    <contour>
      <point x="416" y="686" type="line" name="hr00" smooth="yes"/>
      <point x="416" y="688"/>
      <point x="416" y="686"/>
      <point x="416" y="688" type="curve" smooth="yes"/>
      <point x="416" y="700"/>
      <point x="406" y="710"/>
      <point x="394" y="710" type="curve" smooth="yes"/>
      <point x="349" y="710" type="line" smooth="yes"/>
      <point x="323" y="710"/>
      <point x="311" y="691"/>
      <point x="306" y="678" type="curve" smooth="yes"/>
      <point x="240" y="512" type="line" smooth="yes"/>
      <point x="239" y="509"/>
      <point x="239" y="507"/>
      <point x="239" y="505" type="curve" smooth="yes"/>
      <point x="239" y="493"/>
      <point x="249" y="483"/>
      <point x="261" y="483" type="curve" smooth="yes"/>
      <point x="348" y="483" type="line" smooth="yes"/>
      <point x="375" y="483"/>
      <point x="388" y="504"/>
      <point x="391" y="522" type="curve" smooth="yes"/>
    </contour>
    <contour>
      <point x="217" y="686" type="line" smooth="yes"/>
      <point x="217" y="688"/>
      <point x="217" y="686"/>
      <point x="217" y="688" type="curve" smooth="yes"/>
      <point x="217" y="700"/>
      <point x="207" y="710"/>
      <point x="195" y="710" type="curve" smooth="yes"/>
      <point x="150" y="710" type="line" smooth="yes"/>
      <point x="124" y="710"/>
      <point x="112" y="691"/>
      <point x="107" y="678" type="curve" smooth="yes"/>
      <point x="41" y="512" type="line" smooth="yes"/>
      <point x="40" y="509"/>
      <point x="40" y="507"/>
      <point x="40" y="505" type="curve" smooth="yes"/>
      <point x="40" y="493"/>
      <point x="50" y="483"/>
      <point x="62" y="483" type="curve" smooth="yes"/>
      <point x="149" y="483" type="line" smooth="yes"/>
      <point x="176" y="483"/>
      <point x="189" y="504"/>
      <point x="192" y="522" type="curve" smooth="yes"/>
    </contour>
  </outline>
</glyph>
<glyph name="guilsinglleft" format="1">
  <advance width="352"/>
  <unicode hex="2039"/>
  <outline>
    <contour>
      <point x="43" y="296" type="line" name="hr00" smooth="yes"/>
      <point x="43" y="284"/>
      <point x="49" y="275"/>
      <point x="57" y="268" type="curve" smooth="yes"/>
      <point x="254" y="77" type="line" smooth="yes"/>
      <point x="260" y="72"/>
      <point x="267" y="72"/>
      <point x="268" y="72" type="curve" smooth="yes"/>
      <point x="280" y="72"/>
      <point x="290" y="82"/>
      <point x="290" y="94" type="curve" smooth="yes"/>
      <point x="290" y="183" type="line" smooth="yes"/>
      <point x="290" y="206"/>
      <point x="285" y="215"/>
      <point x="272" y="228" type="curve" smooth="yes"/>
      <point x="168" y="329" type="line"/>
      <point x="272" y="430" type="line" smooth="yes"/>
      <point x="285" y="443"/>
      <point x="290" y="452"/>
      <point x="290" y="475" type="curve" smooth="yes"/>
      <point x="290" y="564" type="line" smooth="yes"/>
      <point x="290" y="576"/>
      <point x="280" y="586"/>
      <point x="268" y="586" type="curve" smooth="yes"/>
      <point x="267" y="586"/>
      <point x="260" y="586"/>
      <point x="254" y="581" type="curve" smooth="yes"/>
      <point x="57" y="390" type="line" smooth="yes"/>
      <point x="49" y="383"/>
      <point x="43" y="374"/>
      <point x="43" y="362" type="curve" smooth="yes"/>
    </contour>
  </outline>
</glyph>
<glyph name="fraction" format="1">
  <advance width="160"/>
  <unicode hex="2044"/>
  <outline>
    <contour>
      <point x="-221" y="31" type="line" name="hr00" smooth="yes"/>
      <point x="-224" y="27"/>
      <point x="-225" y="22"/>
      <point x="-225" y="20" type="curve" smooth="yes"/>
      <point x="-225" y="8"/>
      <point x="-215" y="0"/>
      <point x="-201" y="0" type="curve" smooth="yes"/>
      <point x="-151" y="0" type="line" smooth="yes"/>
      <point x="-132" y="0"/>
      <point x="-124" y="7"/>
      <point x="-115" y="19" type="curve" smooth="yes"/>
      <point x="379" y="669" type="line" smooth="yes"/>
      <point x="382" y="673"/>
      <point x="383" y="678"/>
      <point x="383" y="680" type="curve" smooth="yes"/>
      <point x="383" y="692"/>
      <point x="373" y="700"/>
      <point x="359" y="700" type="curve" smooth="yes"/>
      <point x="309" y="700" type="line" smooth="yes"/>
      <point x="290" y="700"/>
      <point x="282" y="693"/>
      <point x="273" y="681" type="curve" smooth="yes"/>
    </contour>
  </outline>
</glyph>
<glyph name="fourinferior" format="1">
  <advance width="367"/>
  <unicode hex="2084"/>
  <outline>
    <contour>
      <point x="167" y="162" type="curve" name="hr00"/>
      <point x="33" y="-18" type="line" smooth="yes"/>
      <point x="21" y="-34"/>
      <point x="21" y="-45"/>
      <point x="21" y="-48" type="curve" smooth="yes"/>
      <point x="21" y="-91" type="line" smooth="yes"/>
      <point x="21" y="-104"/>
      <point x="30" y="-113"/>
      <point x="43" y="-113" type="curve" smooth="yes"/>
      <point x="191" y="-113" type="line"/>
      <point x="191" y="-148" type="line" smooth="yes"/>
      <point x="191" y="-161"/>
      <point x="200" y="-170"/>
      <point x="213" y="-170" type="curve" smooth="yes"/>
      <point x="265" y="-170" type="line" smooth="yes"/>
      <point x="278" y="-170"/>
      <point x="287" y="-161"/>
      <point x="287" y="-148" type="curve" smooth="yes"/>
      <point x="287" y="-113" type="line"/>
      <point x="322" y="-113" type="line" smooth="yes"/>
      <point x="335" y="-113"/>
      <point x="344" y="-104"/>
      <point x="344" y="-91" type="curve" smooth="yes"/>
      <point x="344" y="-49" type="line" smooth="yes"/>
      <point x="344" y="-36"/>
      <point x="335" y="-27"/>
      <point x="322" y="-27" type="curve" smooth="yes"/>
      <point x="287" y="-27" type="line"/>
      <point x="287" y="158" type="line" smooth="yes"/>
      <point x="287" y="171"/>
      <point x="278" y="180"/>
      <point x="265" y="180" type="curve" smooth="yes"/>
      <point x="197" y="180" type="line" smooth="yes"/>
      <point x="188" y="180"/>
      <point x="177" y="176"/>
    </contour>
    <contour>
      <point x="191" y="67" type="line"/>
      <point x="191" y="-27" type="line"/>
      <point x="122" y="-27" type="line"/>
    </contour>
  </outline>
</glyph>
<glyph name="seveninferior" format="1">
  <advance width="309"/>
  <unicode hex="2087"/>
  <outline>
    <contour>
      <point x="287" y="158" type="line" name="hr00" smooth="yes"/>
      <point x="287" y="171"/>
      <point x="278" y="180"/>
      <point x="265" y="180" type="curve" smooth="yes"/>
      <point x="43" y="180" type="line" smooth="yes"/>
      <point x="30" y="180"/>
      <point x="21" y="171"/>
      <point x="21" y="158" type="curve" smooth="yes"/>
      <point x="21" y="116" type="line" smooth="yes"/>
      <point x="21" y="103"/>
      <point x="30" y="94"/>
      <point x="43" y="94" type="curve" smooth="yes"/>
      <point x="183" y="94" type="line"/>
      <point x="85" y="-134" type="line" smooth="yes"/>
      <point x="83" y="-138"/>
      <point x="81" y="-146"/>
      <point x="81" y="-149" type="curve" smooth="yes"/>
      <point x="81" y="-161"/>
      <point x="88" y="-170"/>
      <point x="101" y="-170" type="curve" smooth="yes"/>
      <point x="154" y="-170" type="line" smooth="yes"/>
      <point x="168" y="-170"/>
      <point x="175" y="-158"/>
      <point x="180" y="-146" type="curve" smooth="yes"/>
      <point x="284" y="96" type="line" smooth="yes"/>
      <point x="287" y="103"/>
      <point x="287" y="108"/>
      <point x="287" y="118" type="curve" smooth="yes"/>
    </contour>
  </outline>
</glyph>
<glyph name="ruble" format="1">
  <advance width="706"/>
  <unicode hex="20BD"/>
  <outline>
    <contour>
      <point x="53" y="375" type="line" name="hr00"/>
      <point x="40" y="375"/>
      <point x="31" y="366"/>
      <point x="31" y="353" type="curve"/>
      <point x="31" y="272" type="line"/>
      <point x="31" y="259"/>
      <point x="40" y="250"/>
      <point x="53" y="250" type="curve"/>
      <point x="132" y="250" type="line"/>
      <point x="132" y="27" type="line"/>
      <point x="132" y="12"/>
      <point x="144" y="0"/>
      <point x="159" y="0" type="curve"/>
      <point x="240" y="0" type="line"/>
      <point x="255" y="0"/>
      <point x="267" y="12"/>
      <point x="267" y="27" type="curve"/>
      <point x="267" y="250" type="line"/>
      <point x="427" y="250" type="line"/>
      <point x="587" y="250"/>
      <point x="682" y="330"/>
      <point x="682" y="476" type="curve" smooth="yes"/>
      <point x="682" y="622"/>
      <point x="587" y="700"/>
      <point x="427" y="700" type="curve"/>
      <point x="159" y="700" type="line"/>
      <point x="144" y="700"/>
      <point x="132" y="688"/>
      <point x="132" y="673" type="curve"/>
      <point x="132" y="375" type="line"/>
    </contour>
    <contour>
      <point x="267" y="575" type="line"/>
      <point x="422" y="575" type="line"/>
      <point x="498" y="575"/>
      <point x="547" y="551"/>
      <point x="547" y="476" type="curve" smooth="yes"/>
      <point x="547" y="401"/>
      <point x="498" y="375"/>
      <point x="422" y="375" type="curve"/>
      <point x="267" y="375" type="line"/>
    </contour>
  </outline>
</glyph>
<glyph name="partialdiff" format="1">
  <advance width="594"/>
  <unicode hex="2202"/>
  <outline>
    <contour>
      <point x="546" y="240" type="curve" name="hr00" smooth="yes"/>
      <point x="546" y="483"/>
      <point x="471" y="575"/>
      <point x="342" y="687" type="curve" smooth="yes"/>
      <point x="332" y="695"/>
      <point x="322" y="700"/>
      <point x="306" y="700" type="curve"/>
      <point x="200" y="700" type="line"/>
      <point x="188" y="700"/>
      <point x="180" y="692"/>
      <point x="180" y="680" type="curve" smooth="yes"/>
      <point x="180" y="675"/>
      <point x="183" y="669"/>
      <point x="197" y="658" type="curve" smooth="yes"/>
      <point x="273" y="597"/>
      <point x="334" y="541"/>
      <point x="371" y="461" type="curve"/>
      <point x="347" y="467"/>
      <point x="321" y="470"/>
      <point x="295" y="470" type="curve" smooth="yes"/>
      <point x="156" y="470"/>
      <point x="44" y="392"/>
      <point x="44" y="230" type="curve" smooth="yes"/>
      <point x="44" y="68"/>
      <point x="156" y="-10"/>
      <point x="295" y="-10" type="curve" smooth="yes"/>
      <point x="434" y="-10"/>
      <point x="546" y="68"/>
    </contour>
    <contour>
      <point x="174" y="230" type="curve" smooth="yes"/>
      <point x="174" y="297"/>
      <point x="216" y="350"/>
      <point x="295" y="350" type="curve" smooth="yes"/>
      <point x="374" y="350"/>
      <point x="416" y="297"/>
      <point x="416" y="230" type="curve" smooth="yes"/>
      <point x="416" y="163"/>
      <point x="374" y="110"/>
      <point x="295" y="110" type="curve" smooth="yes"/>
      <point x="216" y="110"/>
      <point x="174" y="163"/>
    </contour>
  </outline>
</glyph>
<glyph name="uni2206" format="1">
  <advance width="670"/>
  <unicode hex="2206"/>
  <outline>
    <contour>
      <point x="298" y="660" type="line" name="hr00" smooth="yes"/>
      <point x="271" y="660"/>
      <point x="259" y="641"/>
      <point x="253" y="627" type="curve" smooth="yes"/>
      <point x="35" y="102" type="line" smooth="yes"/>
      <point x="32" y="94"/>
      <point x="29" y="90"/>
      <point x="29" y="72" type="curve" smooth="yes"/>
      <point x="29" y="27" type="line" smooth="yes"/>
      <point x="29" y="12"/>
      <point x="41" y="0"/>
      <point x="56" y="0" type="curve" smooth="yes"/>
      <point x="614" y="0" type="line" smooth="yes"/>
      <point x="629" y="0"/>
      <point x="641" y="12"/>
      <point x="641" y="27" type="curve" smooth="yes"/>
      <point x="641" y="72" type="line" smooth="yes"/>
      <point x="641" y="90"/>
      <point x="638" y="94"/>
      <point x="635" y="102" type="curve" smooth="yes"/>
      <point x="417" y="627" type="line" smooth="yes"/>
      <point x="411" y="641"/>
      <point x="399" y="660"/>
      <point x="372" y="660" type="curve" smooth="yes"/>
    </contour>
    <contour>
      <point x="176" y="120" type="line"/>
      <point x="335" y="511" type="line"/>
      <point x="494" y="120" type="line"/>
    </contour>
  </outline>
</glyph>
<glyph name="product" format="1">
  <advance width="642"/>
  <unicode hex="220F"/>
  <outline>
    <contour>
      <point x="442" y="580" type="line" name="hr00"/>
      <point x="442" y="-173" type="line" smooth="yes"/>
      <point x="442" y="-188"/>
      <point x="454" y="-200"/>
      <point x="469" y="-200" type="curve" smooth="yes"/>
      <point x="545" y="-200" type="line" smooth="yes"/>
      <point x="560" y="-200"/>
      <point x="572" y="-188"/>
      <point x="572" y="-173" type="curve" smooth="yes"/>
      <point x="572" y="673" type="line" smooth="yes"/>
      <point x="572" y="688"/>
      <point x="560" y="700"/>
      <point x="545" y="700" type="curve" smooth="yes"/>
      <point x="97" y="700" type="line" smooth="yes"/>
      <point x="82" y="700"/>
      <point x="70" y="688"/>
      <point x="70" y="673" type="curve" smooth="yes"/>
      <point x="70" y="-173" type="line" smooth="yes"/>
      <point x="70" y="-188"/>
      <point x="82" y="-200"/>
      <point x="97" y="-200" type="curve" smooth="yes"/>
      <point x="173" y="-200" type="line" smooth="yes"/>
      <point x="188" y="-200"/>
      <point x="200" y="-188"/>
      <point x="200" y="-173" type="curve" smooth="yes"/>
      <point x="200" y="580" type="line"/>
    </contour>
  </outline>
</glyph>
<glyph name="minus" format="1">
  <advance width="650"/>
  <unicode hex="2212"/>
  <outline>
    <contour>
      <point x="557" y="240" type="line" name="hr00" smooth="yes"/>
      <point x="572" y="240"/>
      <point x="584" y="252"/>
      <point x="584" y="267" type="curve" smooth="yes"/>
      <point x="584" y="333" type="line" smooth="yes"/>
      <point x="584" y="348"/>
      <point x="572" y="360"/>
      <point x="557" y="360" type="curve" smooth="yes"/>
      <point x="93" y="360" type="line" smooth="yes"/>
      <point x="78" y="360"/>
      <point x="66" y="348"/>
      <point x="66" y="333" type="curve" smooth="yes"/>
      <point x="66" y="267" type="line" smooth="yes"/>
      <point x="66" y="252"/>
      <point x="78" y="240"/>
      <point x="93" y="240" type="curve" smooth="yes"/>
    </contour>
  </outline>
</glyph>
<glyph name="radical" format="1">
  <advance width="735"/>
  <unicode hex="221A"/>
  <outline>
    <contour>
      <point x="691" y="860" type="line" name="hr00" smooth="yes"/>
      <point x="706" y="860"/>
      <point x="718" y="848"/>
      <point x="718" y="833" type="curve" smooth="yes"/>
      <point x="718" y="767" type="line" smooth="yes"/>
      <point x="718" y="752"/>
      <point x="706" y="740"/>
      <point x="691" y="740" type="curve" smooth="yes"/>
      <point x="563" y="740" type="line"/>
      <point x="351" y="25" type="line" smooth="yes"/>
      <point x="347" y="11"/>
      <point x="338" y="0"/>
      <point x="318" y="0" type="curve" smooth="yes"/>
      <point x="215" y="0" type="line" smooth="yes"/>
      <point x="195" y="0"/>
      <point x="187" y="11"/>
      <point x="182" y="25" type="curve" smooth="yes"/>
      <point x="20" y="486" type="line" smooth="yes"/>
      <point x="19" y="489"/>
      <point x="19" y="491"/>
      <point x="19" y="493" type="curve" smooth="yes"/>
      <point x="19" y="508"/>
      <point x="31" y="520"/>
      <point x="46" y="520" type="curve" smooth="yes"/>
      <point x="117" y="520" type="line" smooth="yes"/>
      <point x="137" y="520"/>
      <point x="146" y="507"/>
      <point x="150" y="496" type="curve" smooth="yes"/>
      <point x="264" y="161" type="line"/>
      <point x="459" y="836" type="line"/>
      <point x="463" y="847"/>
      <point x="472" y="860"/>
      <point x="492" y="860" type="curve" smooth="yes"/>
    </contour>
  </outline>
</glyph>
<glyph name="infinity" format="1">
  <advance width="900"/>
  <unicode hex="221E"/>
  <outline>
    <contour>
      <point x="450" y="156" type="curve" name="hr00"/>
      <point x="501" y="84"/>
      <point x="550" y="46"/>
      <point x="636" y="46" type="curve" smooth="yes"/>
      <point x="775" y="46"/>
      <point x="850" y="156"/>
      <point x="850" y="271" type="curve" smooth="yes"/>
      <point x="850" y="386"/>
      <point x="775" y="496"/>
      <point x="636" y="496" type="curve" smooth="yes"/>
      <point x="550" y="496"/>
      <point x="501" y="458"/>
      <point x="450" y="386" type="curve"/>
      <point x="399" y="458"/>
      <point x="350" y="496"/>
      <point x="264" y="496" type="curve" smooth="yes"/>
      <point x="125" y="496"/>
      <point x="50" y="386"/>
      <point x="50" y="271" type="curve" smooth="yes"/>
      <point x="50" y="156"/>
      <point x="125" y="46"/>
      <point x="264" y="46" type="curve" smooth="yes"/>
      <point x="350" y="46"/>
      <point x="399" y="84"/>
    </contour>
    <contour>
      <point x="636" y="376" type="curve" smooth="yes"/>
      <point x="668" y="376"/>
      <point x="720" y="352"/>
      <point x="720" y="271" type="curve" smooth="yes"/>
      <point x="720" y="190"/>
      <point x="668" y="166"/>
      <point x="636" y="166" type="curve" smooth="yes"/>
      <point x="582" y="166"/>
      <point x="561" y="207"/>
      <point x="519" y="271" type="curve"/>
      <point x="561" y="335"/>
      <point x="582" y="376"/>
    </contour>
    <contour>
      <point x="264" y="376" type="curve" smooth="yes"/>
      <point x="318" y="376"/>
      <point x="339" y="335"/>
      <point x="381" y="271" type="curve"/>
      <point x="339" y="207"/>
      <point x="318" y="166"/>
      <point x="264" y="166" type="curve" smooth="yes"/>
      <point x="232" y="166"/>
      <point x="180" y="190"/>
      <point x="180" y="271" type="curve" smooth="yes"/>
      <point x="180" y="352"/>
      <point x="232" y="376"/>
    </contour>
  </outline>
</glyph>
<glyph name="notequal" format="1">
  <advance width="551"/>
  <unicode hex="2260"/>
  <outline>
    <contour>
      <point x="470" y="117" type="line"/>
      <point x="485" y="117"/>
      <point x="497" y="129"/>
      <point x="497" y="144" type="curve"/>
      <point x="497" y="210" type="line"/>
      <point x="497" y="225"/>
      <point x="485" y="237"/>
      <point x="470" y="237" type="curve"/>
      <point x="318" y="237" type="line"/>
      <point x="371" y="364" type="line"/>
      <point x="470" y="364" type="line"/>
      <point x="485" y="364"/>
      <point x="497" y="376"/>
      <point x="497" y="391" type="curve"/>
      <point x="497" y="457" type="line"/>
      <point x="497" y="472"/>
      <point x="485" y="484"/>
      <point x="470" y="484" type="curve"/>
      <point x="422" y="484" type="line"/>
      <point x="450" y="549" type="line"/>
      <point x="452" y="554"/>
      <point x="452" y="556"/>
      <point x="452" y="558" type="curve" smooth="yes"/>
      <point x="452" y="570"/>
      <point x="442" y="580"/>
      <point x="430" y="580" type="curve" name="hr01"/>
      <point x="356" y="580" type="line"/>
      <point x="331" y="580"/>
      <point x="318" y="564"/>
      <point x="312" y="550" type="curve"/>
      <point x="284" y="484" type="line" name="hr02"/>
      <point x="85" y="484" type="line"/>
      <point x="70" y="484"/>
      <point x="58" y="472"/>
      <point x="58" y="457" type="curve"/>
      <point x="58" y="391" type="line"/>
      <point x="58" y="376"/>
      <point x="70" y="364"/>
      <point x="85" y="364" type="curve"/>
      <point x="234" y="364" type="line"/>
      <point x="181" y="237" type="line"/>
      <point x="85" y="237" type="line"/>
      <point x="70" y="237"/>
      <point x="58" y="225"/>
      <point x="58" y="210" type="curve"/>
      <point x="58" y="144" type="line"/>
      <point x="58" y="129"/>
      <point x="70" y="117"/>
      <point x="85" y="117" type="curve" name="hr03"/>
      <point x="131" y="117" type="line"/>
      <point x="104" y="52" type="line"/>
      <point x="102" y="47"/>
      <point x="102" y="45"/>
      <point x="102" y="43" type="curve" smooth="yes"/>
      <point x="102" y="31"/>
      <point x="112" y="21"/>
      <point x="124" y="21" type="curve" name="hr04"/>
      <point x="195" y="21" type="line"/>
      <point x="222" y="21"/>
      <point x="234" y="38"/>
      <point x="239" y="51" type="curve"/>
      <point x="267" y="117" type="line" name="hr05"/>
    </contour>
  </outline>
</glyph>
<glyph name="lozenge" format="1">
  <advance width="560"/>
  <unicode hex="25CA"/>
  <outline>
    <contour>
      <point x="35" y="355" type="curve" name="hr00" smooth="yes"/>
      <point x="35" y="344"/>
      <point x="39" y="335"/>
      <point x="43" y="327" type="curve" smooth="yes"/>
      <point x="199" y="33" type="line" smooth="yes"/>
      <point x="206" y="19"/>
      <point x="222" y="0"/>
      <point x="249" y="0" type="curve" smooth="yes"/>
      <point x="311" y="0" type="line" smooth="yes"/>
      <point x="338" y="0"/>
      <point x="354" y="19"/>
      <point x="361" y="33" type="curve" smooth="yes"/>
      <point x="517" y="327" type="line" smooth="yes"/>
      <point x="521" y="335"/>
      <point x="525" y="344"/>
      <point x="525" y="355" type="curve" smooth="yes"/>
      <point x="525" y="366"/>
      <point x="521" y="375"/>
      <point x="517" y="383" type="curve" smooth="yes"/>
      <point x="361" y="677" type="line" smooth="yes"/>
      <point x="354" y="691"/>
      <point x="338" y="710"/>
      <point x="311" y="710" type="curve" smooth="yes"/>
      <point x="249" y="710" type="line" smooth="yes"/>
      <point x="222" y="710"/>
      <point x="206" y="691"/>
      <point x="199" y="677" type="curve" smooth="yes"/>
      <point x="43" y="383" type="line" smooth="yes"/>
      <point x="39" y="375"/>
      <point x="35" y="366"/>
    </contour>
    <contour>
      <point x="391" y="355" type="line"/>
      <point x="280" y="144" type="line"/>
      <point x="169" y="355" type="line"/>
      <point x="280" y="566" type="line"/>
    </contour>
  </outline>
</glyph>
<glyph name="bracketleft.cap" format="1">
  <advance width="369"/>
  <outline>
    <contour>
      <point x="301" y="-117" type="line" name="hr00" smooth="yes"/>
      <point x="316" y="-117"/>
      <point x="328" y="-105"/>
      <point x="328" y="-90" type="curve" smooth="yes"/>
      <point x="328" y="-24" type="line" smooth="yes"/>
      <point x="328" y="-9"/>
      <point x="316" y="3"/>
      <point x="301" y="3" type="curve" smooth="yes"/>
      <point x="200" y="3" type="line"/>
      <point x="200" y="698" type="line"/>
      <point x="301" y="698" type="line" smooth="yes"/>
      <point x="316" y="698"/>
      <point x="328" y="710"/>
      <point x="328" y="725" type="curve" smooth="yes"/>
      <point x="328" y="791" type="line" smooth="yes"/>
      <point x="328" y="806"/>
      <point x="316" y="818"/>
      <point x="301" y="818" type="curve" smooth="yes"/>
      <point x="97" y="818" type="line" smooth="yes"/>
      <point x="82" y="818"/>
      <point x="70" y="806"/>
      <point x="70" y="791" type="curve" smooth="yes"/>
      <point x="70" y="-90" type="line" smooth="yes"/>
      <point x="70" y="-105"/>
      <point x="82" y="-117"/>
      <point x="97" y="-117" type="curve" smooth="yes"/>
    </contour>
  </outline>
</glyph>
<glyph name="bracketright.cap" format="1">
  <advance width="369"/>
  <outline>
    <contour>
      <point x="272" y="-117" type="line" name="hr00" smooth="yes"/>
      <point x="287" y="-117"/>
      <point x="299" y="-105"/>
      <point x="299" y="-90" type="curve" smooth="yes"/>
      <point x="299" y="791" type="line" smooth="yes"/>
      <point x="299" y="806"/>
      <point x="287" y="818"/>
      <point x="272" y="818" type="curve" smooth="yes"/>
      <point x="68" y="818" type="line" smooth="yes"/>
      <point x="53" y="818"/>
      <point x="41" y="806"/>
      <point x="41" y="791" type="curve" smooth="yes"/>
      <point x="41" y="725" type="line" smooth="yes"/>
      <point x="41" y="710"/>
      <point x="53" y="698"/>
      <point x="68" y="698" type="curve" smooth="yes"/>
      <point x="169" y="698" type="line"/>
      <point x="169" y="3" type="line"/>
      <point x="68" y="3" type="line" smooth="yes"/>
      <point x="53" y="3"/>
      <point x="41" y="-9"/>
      <point x="41" y="-24" type="curve" smooth="yes"/>
      <point x="41" y="-90" type="line" smooth="yes"/>
      <point x="41" y="-105"/>
      <point x="53" y="-117"/>
      <point x="68" y="-117" type="curve" smooth="yes"/>
    </contour>
  </outline>
</glyph>
<glyph name="eight.otlf" format="1">
  <advance width="640"/>
  <outline>
    <contour>
      <point x="44" y="208" type="curve" smooth="yes"/>
      <point x="44" y="78"/>
      <point x="152" y="-10"/>
      <point x="320" y="-10" type="curve" smooth="yes"/>
      <point x="488" y="-10"/>
      <point x="596" y="78"/>
      <point x="596" y="208" type="curve" smooth="yes"/>
      <point x="596" y="277"/>
      <point x="565" y="332"/>
      <point x="512" y="369" type="curve"/>
      <point x="549" y="403"/>
      <point x="571" y="449"/>
      <point x="571" y="505" type="curve" name="hr01" smooth="yes"/>
      <point x="571" y="628"/>
      <point x="464" y="710"/>
      <point x="320" y="710" type="curve" smooth="yes"/>
      <point x="176" y="710"/>
      <point x="69" y="628"/>
      <point x="69" y="505" type="curve" smooth="yes"/>
      <point x="69" y="449"/>
      <point x="90" y="403"/>
      <point x="128" y="369" type="curve"/>
      <point x="74" y="332"/>
      <point x="44" y="277"/>
    </contour>
    <contour>
      <point x="179" y="208" type="curve" smooth="yes"/>
      <point x="179" y="269"/>
      <point x="247" y="300"/>
      <point x="320" y="300" type="curve" smooth="yes"/>
      <point x="393" y="300"/>
      <point x="461" y="269"/>
      <point x="461" y="208" type="curve" smooth="yes"/>
      <point x="461" y="147"/>
      <point x="393" y="115"/>
      <point x="320" y="115" type="curve" smooth="yes"/>
      <point x="247" y="115"/>
      <point x="179" y="147"/>
    </contour>
    <contour>
      <point x="204" y="505" type="curve" name="hr03" smooth="yes"/>
      <point x="204" y="559"/>
      <point x="260" y="585"/>
      <point x="320" y="585" type="curve" smooth="yes"/>
      <point x="380" y="585"/>
      <point x="436" y="559"/>
      <point x="436" y="505" type="curve" smooth="yes"/>
      <point x="436" y="451"/>
      <point x="380" y="425"/>
      <point x="320" y="425" type="curve" smooth="yes"/>
      <point x="260" y="425"/>
      <point x="204" y="451"/>
    </contour>
  </outline>
</glyph>
<glyph name="f_f" format="1">
  <advance width="762"/>
  <outline>
    <contour>
      <point x="245" y="400" type="line" name="hr00"/>
      <point x="450" y="400" type="line"/>
      <point x="450" y="27" type="line"/>
      <point x="450" y="12"/>
      <point x="462" y="0"/>
      <point x="477" y="0" type="curve"/>
      <point x="553" y="0" type="line"/>
      <point x="568" y="0"/>
      <point x="580" y="12"/>
      <point x="580" y="27" type="curve"/>
      <point x="580" y="400" type="line"/>
      <point x="719" y="400" type="line"/>
      <point x="734" y="400"/>
      <point x="746" y="412"/>
      <point x="746" y="427" type="curve"/>
      <point x="746" y="493" type="line"/>
      <point x="746" y="508"/>
      <point x="734" y="520"/>
      <point x="719" y="520" type="curve"/>
      <point x="580" y="520" type="line"/>
      <point x="580" y="555" type="line"/>
      <point x="580" y="605"/>
      <point x="608" y="620"/>
      <point x="658" y="620" type="curve"/>
      <point x="729" y="620" type="line"/>
      <point x="744" y="620"/>
      <point x="756" y="632"/>
      <point x="756" y="647" type="curve"/>
      <point x="756" y="713" type="line"/>
      <point x="756" y="728"/>
      <point x="744" y="740"/>
      <point x="729" y="740" type="curve"/>
      <point x="648" y="740" type="line"/>
      <point x="528" y="740"/>
      <point x="450" y="694"/>
      <point x="450" y="565" type="curve"/>
      <point x="450" y="520" type="line"/>
      <point x="245" y="520" type="line"/>
      <point x="245" y="555" type="line"/>
      <point x="245" y="605"/>
      <point x="273" y="620"/>
      <point x="323" y="620" type="curve"/>
      <point x="394" y="620" type="line"/>
      <point x="409" y="620"/>
      <point x="421" y="632"/>
      <point x="421" y="647" type="curve"/>
      <point x="421" y="713" type="line"/>
      <point x="421" y="728"/>
      <point x="409" y="740"/>
      <point x="394" y="740" type="curve"/>
      <point x="313" y="740" type="line"/>
      <point x="193" y="740"/>
      <point x="115" y="694"/>
      <point x="115" y="565" type="curve"/>
      <point x="115" y="520" type="line"/>
      <point x="49" y="520" type="line"/>
      <point x="34" y="520"/>
      <point x="22" y="508"/>
      <point x="22" y="493" type="curve"/>
      <point x="22" y="427" type="line"/>
      <point x="22" y="412"/>
      <point x="34" y="400"/>
      <point x="49" y="400" type="curve"/>
      <point x="115" y="400" type="line"/>
      <point x="115" y="27" type="line"/>
      <point x="115" y="12"/>
      <point x="127" y="0"/>
      <point x="142" y="0" type="curve"/>
      <point x="218" y="0" type="line"/>
      <point x="233" y="0"/>
      <point x="245" y="12"/>
      <point x="245" y="27" type="curve"/>
    </contour>
  </outline>
</glyph>
<glyph name="f_f_i" format="1">
  <advance width="975"/>
  <outline>
    <contour>
      <point x="906" y="493" type="line" name="hr00" smooth="yes"/>
      <point x="906" y="508"/>
      <point x="894" y="520"/>
      <point x="879" y="520" type="curve" smooth="yes"/>
      <point x="580" y="520" type="line"/>
      <point x="580" y="555" type="line" smooth="yes"/>
      <point x="580" y="605"/>
      <point x="608" y="620"/>
      <point x="658" y="620" type="curve" smooth="yes"/>
      <point x="879" y="620" type="line" smooth="yes"/>
      <point x="894" y="620"/>
      <point x="906" y="632"/>
      <point x="906" y="647" type="curve" smooth="yes"/>
      <point x="906" y="713" type="line" smooth="yes"/>
      <point x="906" y="728"/>
      <point x="894" y="740"/>
      <point x="879" y="740" type="curve" smooth="yes"/>
      <point x="648" y="740" type="line" smooth="yes"/>
      <point x="528" y="740"/>
      <point x="450" y="694"/>
      <point x="450" y="565" type="curve" smooth="yes"/>
      <point x="450" y="520" type="line"/>
      <point x="245" y="520" type="line"/>
      <point x="245" y="555" type="line" smooth="yes"/>
      <point x="245" y="605"/>
      <point x="273" y="620"/>
      <point x="323" y="620" type="curve" smooth="yes"/>
      <point x="394" y="620" type="line" smooth="yes"/>
      <point x="409" y="620"/>
      <point x="421" y="632"/>
      <point x="421" y="647" type="curve" smooth="yes"/>
      <point x="421" y="713" type="line" smooth="yes"/>
      <point x="421" y="728"/>
      <point x="409" y="740"/>
      <point x="394" y="740" type="curve" smooth="yes"/>
      <point x="313" y="740" type="line" smooth="yes"/>
      <point x="193" y="740"/>
      <point x="115" y="694"/>
      <point x="115" y="565" type="curve" smooth="yes"/>
      <point x="115" y="520" type="line"/>
      <point x="49" y="520" type="line" smooth="yes"/>
      <point x="34" y="520"/>
      <point x="22" y="508"/>
      <point x="22" y="493" type="curve" smooth="yes"/>
      <point x="22" y="427" type="line" smooth="yes"/>
      <point x="22" y="412"/>
      <point x="34" y="400"/>
      <point x="49" y="400" type="curve" smooth="yes"/>
      <point x="115" y="400" type="line"/>
      <point x="115" y="27" type="line" smooth="yes"/>
      <point x="115" y="12"/>
      <point x="127" y="0"/>
      <point x="142" y="0" type="curve" smooth="yes"/>
      <point x="218" y="0" type="line" smooth="yes"/>
      <point x="233" y="0"/>
      <point x="245" y="12"/>
      <point x="245" y="27" type="curve" smooth="yes"/>
      <point x="245" y="400" type="line"/>
      <point x="450" y="400" type="line"/>
      <point x="450" y="27" type="line" smooth="yes"/>
      <point x="450" y="12"/>
      <point x="462" y="0"/>
      <point x="477" y="0" type="curve" smooth="yes"/>
      <point x="553" y="0" type="line" smooth="yes"/>
      <point x="568" y="0"/>
      <point x="580" y="12"/>
      <point x="580" y="27" type="curve" smooth="yes"/>
      <point x="580" y="400" type="line"/>
      <point x="776" y="400" type="line"/>
      <point x="776" y="27" type="line" smooth="yes"/>
      <point x="776" y="12"/>
      <point x="788" y="0"/>
      <point x="803" y="0" type="curve" smooth="yes"/>
      <point x="879" y="0" type="line" smooth="yes"/>
      <point x="894" y="0"/>
      <point x="906" y="12"/>
      <point x="906" y="27" type="curve" smooth="yes"/>
    </contour>
  </outline>
</glyph>
<glyph name="guillemotleft.cap" format="1">
  <advance width="635"/>
  <outline>
    <contour>
      <point x="321" y="317" type="line" name="hr00"/>
      <point x="321" y="305"/>
      <point x="327" y="296"/>
      <point x="335" y="289" type="curve" smooth="yes"/>
      <point x="532" y="98" type="line" smooth="yes"/>
      <point x="538" y="93"/>
      <point x="545" y="93"/>
      <point x="546" y="93" type="curve" smooth="yes"/>
      <point x="558" y="93"/>
      <point x="568" y="103"/>
      <point x="568" y="115" type="curve" smooth="yes"/>
      <point x="568" y="204" type="line" smooth="yes"/>
      <point x="568" y="227"/>
      <point x="563" y="236"/>
      <point x="550" y="249" type="curve" smooth="yes"/>
      <point x="446" y="350" type="line"/>
      <point x="550" y="451" type="line" smooth="yes"/>
      <point x="563" y="464"/>
      <point x="568" y="473"/>
      <point x="568" y="496" type="curve" smooth="yes"/>
      <point x="568" y="585" type="line" smooth="yes"/>
      <point x="568" y="597"/>
      <point x="558" y="607"/>
      <point x="546" y="607" type="curve" smooth="yes"/>
      <point x="545" y="607"/>
      <point x="538" y="607"/>
      <point x="532" y="602" type="curve" smooth="yes"/>
      <point x="335" y="411" type="line" smooth="yes"/>
      <point x="327" y="404"/>
      <point x="321" y="395"/>
      <point x="321" y="383" type="curve" smooth="yes"/>
    </contour>
    <contour>
      <point x="50" y="317" type="line"/>
      <point x="50" y="305"/>
      <point x="56" y="296"/>
      <point x="64" y="289" type="curve" smooth="yes"/>
      <point x="261" y="98" type="line" smooth="yes"/>
      <point x="267" y="93"/>
      <point x="274" y="93"/>
      <point x="275" y="93" type="curve" smooth="yes"/>
      <point x="287" y="93"/>
      <point x="297" y="103"/>
      <point x="297" y="115" type="curve" smooth="yes"/>
      <point x="297" y="204" type="line" smooth="yes"/>
      <point x="297" y="227"/>
      <point x="292" y="236"/>
      <point x="279" y="249" type="curve" smooth="yes"/>
      <point x="175" y="350" type="line"/>
      <point x="279" y="451" type="line" smooth="yes"/>
      <point x="292" y="464"/>
      <point x="297" y="473"/>
      <point x="297" y="496" type="curve" smooth="yes"/>
      <point x="297" y="585" type="line" smooth="yes"/>
      <point x="297" y="597"/>
      <point x="287" y="607"/>
      <point x="275" y="607" type="curve" smooth="yes"/>
      <point x="274" y="607"/>
      <point x="267" y="607"/>
      <point x="261" y="602" type="curve" smooth="yes"/>
      <point x="64" y="411" type="line" smooth="yes"/>
      <point x="56" y="404"/>
      <point x="50" y="395"/>
      <point x="50" y="383" type="curve" smooth="yes"/>
    </contour>
  </outline>
</glyph>
<glyph name="guilsinglleft.cap" format="1">
  <advance width="364"/>
  <outline>
    <contour>
      <point x="50" y="317" type="line" name="hr00" smooth="yes"/>
      <point x="50" y="305"/>
      <point x="56" y="296"/>
      <point x="64" y="289" type="curve" smooth="yes"/>
      <point x="261" y="98" type="line" smooth="yes"/>
      <point x="267" y="93"/>
      <point x="274" y="93"/>
      <point x="275" y="93" type="curve" smooth="yes"/>
      <point x="287" y="93"/>
      <point x="297" y="103"/>
      <point x="297" y="115" type="curve" smooth="yes"/>
      <point x="297" y="204" type="line" smooth="yes"/>
      <point x="297" y="227"/>
      <point x="292" y="236"/>
      <point x="279" y="249" type="curve" smooth="yes"/>
      <point x="175" y="350" type="line"/>
      <point x="279" y="451" type="line" smooth="yes"/>
      <point x="292" y="464"/>
      <point x="297" y="473"/>
      <point x="297" y="496" type="curve" smooth="yes"/>
      <point x="297" y="585" type="line" smooth="yes"/>
      <point x="297" y="597"/>
      <point x="287" y="607"/>
      <point x="275" y="607" type="curve" smooth="yes"/>
      <point x="274" y="607"/>
      <point x="267" y="607"/>
      <point x="261" y="602" type="curve" smooth="yes"/>
      <point x="64" y="411" type="line" smooth="yes"/>
      <point x="56" y="404"/>
      <point x="50" y="395"/>
      <point x="50" y="383" type="curve" smooth="yes"/>
    </contour>
  </outline>
</glyph>
<glyph name="nine.otlf" format="1">
  <advance width="640"/>
  <outline>
    <contour>
      <point x="176" y="27" type="curve" name="hr00" smooth="yes"/>
      <point x="176" y="12"/>
      <point x="188" y="0"/>
      <point x="203" y="0" type="curve"/>
      <point x="293" y="0" type="line"/>
      <point x="311" y="0"/>
      <point x="319" y="12"/>
      <point x="324" y="20" type="curve"/>
      <point x="512" y="288" type="line"/>
      <point x="546" y="337"/>
      <point x="584" y="391"/>
      <point x="584" y="469" type="curve" smooth="yes"/>
      <point x="584" y="615"/>
      <point x="467" y="710"/>
      <point x="317" y="710" type="curve" smooth="yes"/>
      <point x="167" y="710"/>
      <point x="50" y="615"/>
      <point x="50" y="469" type="curve" smooth="yes"/>
      <point x="50" y="324"/>
      <point x="165" y="230"/>
      <point x="313" y="229" type="curve"/>
      <point x="181" y="40" type="line"/>
      <point x="179" y="37"/>
      <point x="176" y="33"/>
    </contour>
    <contour>
      <point x="186" y="469" type="curve" smooth="yes"/>
      <point x="186" y="542"/>
      <point x="241" y="585"/>
      <point x="317" y="585" type="curve" smooth="yes"/>
      <point x="393" y="585"/>
      <point x="448" y="542"/>
      <point x="448" y="469" type="curve" smooth="yes"/>
      <point x="448" y="396"/>
      <point x="393" y="354"/>
      <point x="317" y="354" type="curve" smooth="yes"/>
      <point x="241" y="354"/>
      <point x="186" y="395"/>
    </contour>
  </outline>
</glyph>
<glyph name="parenleft.cap" format="1">
  <advance width="384"/>
  <outline>
    <contour>
      <point x="317" y="3" type="curve" name="hr00" smooth="yes"/>
      <point x="209" y="13"/>
      <point x="183" y="133"/>
      <point x="183" y="351" type="curve" smooth="yes"/>
      <point x="183" y="569"/>
      <point x="209" y="688"/>
      <point x="317" y="698" type="curve" smooth="yes"/>
      <point x="332" y="699"/>
      <point x="344" y="710"/>
      <point x="344" y="725" type="curve" smooth="yes"/>
      <point x="344" y="791" type="line" smooth="yes"/>
      <point x="344" y="806"/>
      <point x="332" y="818"/>
      <point x="317" y="818" type="curve" smooth="yes"/>
      <point x="117" y="818"/>
      <point x="53" y="651"/>
      <point x="53" y="351" type="curve" smooth="yes"/>
      <point x="53" y="51"/>
      <point x="117" y="-117"/>
      <point x="317" y="-117" type="curve" smooth="yes"/>
      <point x="332" y="-117"/>
      <point x="344" y="-105"/>
      <point x="344" y="-90" type="curve" smooth="yes"/>
      <point x="344" y="-24" type="line" smooth="yes"/>
      <point x="344" y="-9"/>
      <point x="332" y="2"/>
    </contour>
  </outline>
</glyph>
<glyph name="parenleft.otlf" format="1">
  <advance width="640"/>
  <outline>
    <contour>
      <point x="445" y="3" type="curve" name="hr00" smooth="yes"/>
      <point x="337" y="13"/>
      <point x="311" y="133"/>
      <point x="311" y="351" type="curve" smooth="yes"/>
      <point x="311" y="569"/>
      <point x="337" y="688"/>
      <point x="445" y="698" type="curve" smooth="yes"/>
      <point x="460" y="699"/>
      <point x="472" y="710"/>
      <point x="472" y="725" type="curve" smooth="yes"/>
      <point x="472" y="791" type="line" smooth="yes"/>
      <point x="472" y="806"/>
      <point x="460" y="818"/>
      <point x="445" y="818" type="curve" smooth="yes"/>
      <point x="245" y="818"/>
      <point x="181" y="651"/>
      <point x="181" y="351" type="curve" smooth="yes"/>
      <point x="181" y="51"/>
      <point x="245" y="-117"/>
      <point x="445" y="-117" type="curve" smooth="yes"/>
      <point x="460" y="-117"/>
      <point x="472" y="-105"/>
      <point x="472" y="-90" type="curve" smooth="yes"/>
      <point x="472" y="-24" type="line" smooth="yes"/>
      <point x="472" y="-9"/>
      <point x="460" y="2"/>
    </contour>
  </outline>
</glyph>
<glyph name="six.otlf" format="1">
  <advance width="640"/>
  <outline>
    <contour>
      <point x="54" y="237" type="curve" name="hr00"/>
      <point x="54" y="91"/>
      <point x="166" y="-10"/>
      <point x="326" y="-10" type="curve" smooth="yes"/>
      <point x="486" y="-10"/>
      <point x="598" y="91"/>
      <point x="598" y="237" type="curve" smooth="yes"/>
      <point x="598" y="382"/>
      <point x="488" y="480"/>
      <point x="330" y="482" type="curve"/>
      <point x="454" y="660" type="line" smooth="yes"/>
      <point x="456" y="663"/>
      <point x="459" y="667"/>
      <point x="459" y="673" type="curve" smooth="yes"/>
      <point x="459" y="688"/>
      <point x="447" y="700"/>
      <point x="432" y="700" type="curve" smooth="yes"/>
      <point x="342" y="700" type="line" smooth="yes"/>
      <point x="324" y="700"/>
      <point x="316" y="688"/>
      <point x="311" y="680" type="curve" smooth="yes"/>
      <point x="121" y="412" type="line" smooth="yes"/>
      <point x="87" y="363"/>
      <point x="55" y="315"/>
    </contour>
    <contour>
      <point x="462" y="237" type="curve" smooth="yes"/>
      <point x="462" y="169"/>
      <point x="412" y="115"/>
      <point x="326" y="115" type="curve" smooth="yes"/>
      <point x="240" y="115"/>
      <point x="190" y="169"/>
      <point x="190" y="237" type="curve" smooth="yes"/>
      <point x="190" y="305"/>
      <point x="240" y="357"/>
      <point x="326" y="357" type="curve" smooth="yes"/>
      <point x="412" y="357"/>
      <point x="462" y="305"/>
    </contour>
  </outline>
</glyph>
